<?xml version="1.0" encoding="utf-8"?>
<!-- Generator: Adobe Illustrator 25.4.1, SVG Export Plug-In . SVG Version: 6.00 Build 0)  -->
<svg version="1.1" id="_x30_1d" xmlns="http://www.w3.org/2000/svg" xmlns:xlink="http://www.w3.org/1999/xlink" x="0px" y="0px"
	 viewBox="0 0 250 250" style="enable-background:new 0 0 250 250;" xml:space="preserve">
<style type="text/css">
	.st0{fill:#F29100;}
	.st1{fill:url(#XMLID_00000170242151765983440760000001229095613915886485_);}
	.st2{fill:url(#XMLID_00000176007018654864592580000017073866346985612432_);}
	.st3{fill:url(#XMLID_00000098207231544109591880000007701559869785050258_);}
	.st4{fill:url(#XMLID_00000147193572253446029330000012094632596710336924_);}
	.st5{fill:url(#XMLID_00000128480635243492659160000002521656518700042146_);}
</style>
<g id="XMLID_1832_">
	<g id="XMLID_1837_">
		<polygon id="XMLID_1840_" class="st0" points="41.32,41.46 75.43,39.38 94.28,10.87 124.86,26.16 155.43,10.87 174.28,39.38 
			208.39,41.46 210.48,75.57 238.99,94.43 223.69,125 238.99,155.57 210.48,174.43 208.39,208.54 174.28,210.62 155.43,239.13 
			124.86,223.84 94.28,239.13 75.43,210.62 41.32,208.54 39.24,174.43 10.72,155.57 26.02,125 10.72,94.42 39.24,75.57 		"/>
		
			<linearGradient id="XMLID_00000013880414233803971140000014702761504075661240_" gradientUnits="userSpaceOnUse" x1="717.4332" y1="-1587.8367" x2="946.4783" y2="-1587.8367" gradientTransform="matrix(0.7071 0.7071 -0.7071 0.7071 -1588 657.6617)">
			<stop  offset="0.017" style="stop-color:#FDC723"/>
			<stop  offset="0.2379" style="stop-color:#F8B133"/>
			<stop  offset="0.7876" style="stop-color:#F29100"/>
			<stop  offset="0.9796" style="stop-color:#ED7402"/>
		</linearGradient>
		<polygon id="XMLID_1839_" style="fill:url(#XMLID_00000013880414233803971140000014702761504075661240_);" points="1.43,125 
			25.09,98.26 17.95,63.27 51.84,51.98 63.13,18.09 98.12,25.23 124.86,1.57 151.6,25.23 186.59,18.09 197.87,51.98 231.76,63.27 
			224.63,98.26 248.29,125 224.63,151.74 231.76,186.73 197.87,198.02 186.59,231.91 151.6,224.77 124.86,248.43 98.12,224.77 
			63.13,231.91 51.84,198.02 17.95,186.73 25.09,151.74 		"/>
		
			<radialGradient id="XMLID_00000176010281567053579290000011359345356915400126_" cx="109.3065" cy="110.2385" r="106.9803" gradientUnits="userSpaceOnUse">
			<stop  offset="0.0333" style="stop-color:#FFE089"/>
			<stop  offset="0.3449" style="stop-color:#FDC723"/>
			<stop  offset="0.5538" style="stop-color:#F8B133"/>
			<stop  offset="0.7876" style="stop-color:#F29100"/>
			<stop  offset="0.9796" style="stop-color:#ED7402"/>
		</radialGradient>
		
			<circle id="XMLID_1838_" style="fill:url(#XMLID_00000176010281567053579290000011359345356915400126_);" cx="124.86" cy="125" r="93.49"/>
	</g>
	<g id="XMLID_1833_">
		
			<radialGradient id="XMLID_00000127757158906210089610000016220819151494832828_" cx="81.5" cy="104.5399" r="7.1547" gradientUnits="userSpaceOnUse">
			<stop  offset="0" style="stop-color:#3C3C3B"/>
			<stop  offset="1" style="stop-color:#1D1D1B"/>
		</radialGradient>
		<path id="XMLID_1836_" style="fill:url(#XMLID_00000127757158906210089610000016220819151494832828_);" d="M86.02,107.18
			c0,3.95-3.2,7.15-7.15,7.15c-3.95,0-7.15-3.2-7.15-7.15c0-3.95,3.2-7.15,7.15-7.15C82.81,100.02,86.02,103.23,86.02,107.18z"/>
		
			<radialGradient id="XMLID_00000168111331827153590860000000741032563364233099_" cx="172.9225" cy="103.9749" r="7.1547" gradientUnits="userSpaceOnUse">
			<stop  offset="0" style="stop-color:#3C3C3B"/>
			<stop  offset="1" style="stop-color:#1D1D1B"/>
		</radialGradient>
		<path id="XMLID_1835_" style="fill:url(#XMLID_00000168111331827153590860000000741032563364233099_);" d="M178.01,107.18
			c0,3.95-3.2,7.15-7.15,7.15c-3.95,0-7.15-3.2-7.15-7.15c0-3.95,3.2-7.15,7.15-7.15C174.8,100.02,178.01,103.23,178.01,107.18z"/>
		
			<radialGradient id="XMLID_00000051341746571579576320000005381046685116396722_" cx="124.4783" cy="144.0539" r="20.9652" gradientUnits="userSpaceOnUse">
			<stop  offset="0.2927" style="stop-color:#3C3C3B"/>
			<stop  offset="1" style="stop-color:#1D1D1B"/>
		</radialGradient>
		<path id="XMLID_1834_" style="fill:url(#XMLID_00000051341746571579576320000005381046685116396722_);" d="M124.86,149.98
			c6.98,0,12.63-5.66,12.63-12.63h-25.26C112.22,144.32,117.88,149.98,124.86,149.98z"/>
	</g>
</g>
</svg>
