<?xml version="1.0" encoding="utf-8"?>
<!-- Generator: Adobe Illustrator 25.4.1, SVG Export Plug-In . SVG Version: 6.00 Build 0)  -->
<svg version="1.1" xmlns="http://www.w3.org/2000/svg" xmlns:xlink="http://www.w3.org/1999/xlink" x="0px" y="0px"
	 viewBox="0 0 250 250" style="enable-background:new 0 0 250 250;" xml:space="preserve">
<style type="text/css">
	.st0{display:none;}
	.st1{display:inline;}
	.st2{fill:#F29100;}
	.st3{fill:url(#XMLID_00000100348406867904689970000006483720118466375321_);}
	.st4{fill:url(#XMLID_00000125602559749294853680000006255520905246910092_);}
	.st5{fill:url(#XMLID_00000159459040078037017780000010237016629536985254_);}
	.st6{fill:url(#XMLID_00000030483218770560802790000015368583325165652353_);}
	.st7{fill:url(#XMLID_00000086665115001554208630000012312109431662177708_);}
	.st8{fill:url(#XMLID_00000064321473569654368810000012743482950646120884_);}
	.st9{fill:url(#XMLID_00000005244882811682199450000005283432110109892269_);}
	.st10{fill:url(#XMLID_00000141418813718272924760000005681414669350696122_);}
	.st11{fill:url(#XMLID_00000112633320876500365270000008531060840954332317_);}
	.st12{fill:url(#XMLID_00000153702059361062779740000000897118652533397416_);}
	.st13{fill:url(#XMLID_00000171720093750992425310000004732184468585613987_);}
	.st14{fill:url(#XMLID_00000009585718994760699820000009400506495471901591_);}
	.st15{fill:#ECECEC;}
	.st16{fill:#F5F5F5;}
	.st17{fill:#FFFFFF;}
	.st18{fill:url(#XMLID_00000064321763166170489260000001300648820266255270_);}
	.st19{fill:url(#XMLID_00000132800092543342428900000017351384425402301058_);}
	.st20{fill:url(#XMLID_00000180359208926685437270000014599490195775712642_);}
	.st21{display:inline;fill:url(#XMLID_00000041288209830078787330000012735127097986278808_);}
	.st22{display:inline;fill:#ECECEC;}
	.st23{display:inline;fill:#F5F5F5;}
	.st24{display:inline;fill:#FFFFFF;}
	.st25{fill:url(#XMLID_00000115474573119648239530000004333785119446961599_);}
	.st26{fill:url(#XMLID_00000005228605815601626610000002006595848752618138_);}
	.st27{display:inline;fill:url(#XMLID_00000169544014758503363320000002363061943127134339_);}
	.st28{display:inline;fill:url(#XMLID_00000181080216514986629620000002351502228376361604_);}
	.st29{fill:url(#XMLID_00000173159840872287596870000015121421565288763528_);}
	.st30{fill:url(#XMLID_00000010285831777974458960000015770445286511099567_);}
	.st31{display:inline;fill:url(#XMLID_00000039115979603092851540000006043018689299069095_);}
	.st32{display:inline;fill:url(#XMLID_00000127012734929973232200000017373175763822909108_);}
	.st33{display:inline;fill:#D9D9D9;}
	.st34{display:inline;fill:url(#XMLID_00000038389429416798826670000011036215476414079636_);}
	.st35{display:inline;fill:url(#XMLID_00000070797851809672322980000005053002517102459326_);}
	.st36{fill:url(#XMLID_00000013182074309228384570000011178487595012104375_);}
	.st37{fill:url(#XMLID_00000167372316852209341910000015772063275378368179_);}
	.st38{fill:url(#XMLID_00000025423204672696215940000010052578518269528216_);}
	.st39{fill:url(#XMLID_00000137123217426803586770000012180422724155241624_);}
	.st40{fill:url(#XMLID_00000085939351559948605100000008946607867029080485_);}
	.st41{fill:url(#XMLID_00000133524722701283772980000012834640720566617225_);}
	.st42{fill:url(#XMLID_00000123432569317429937350000017138571123575452291_);}
	.st43{fill:url(#XMLID_00000174600751369182108620000003219479820032211390_);}
	.st44{fill:url(#XMLID_00000125584122267766272400000006422207102833847993_);}
	.st45{opacity:0.37;fill:url(#XMLID_00000155862244052896354140000004097823856628665228_);}
	.st46{opacity:0.37;fill:url(#XMLID_00000036240116108646124560000017960969249179020712_);}
	.st47{opacity:0.37;fill:url(#XMLID_00000011026147523004612240000000477364720812119206_);}
	.st48{opacity:0.37;fill:url(#XMLID_00000132056312782136085140000004369293356440729482_);}
	.st49{opacity:0.37;fill:url(#XMLID_00000170982938801664847680000002782202406729648513_);}
	.st50{opacity:0.37;fill:url(#XMLID_00000158024127733363447520000017155937217279423646_);}
	.st51{opacity:0.37;fill:url(#XMLID_00000044165732666427889630000003977112065655949989_);}
	.st52{opacity:0.37;fill:url(#XMLID_00000025421908449296090010000005613901134176462015_);}
	.st53{opacity:0.37;fill:url(#XMLID_00000098916731195031743860000004864625971536189101_);}
	.st54{opacity:0.37;fill:url(#XMLID_00000004507394581373690660000007889865957499462561_);}
	.st55{opacity:0.37;fill:url(#XMLID_00000093892047117578276250000000723336908153494188_);}
	.st56{opacity:0.37;fill:url(#XMLID_00000018941153915486460680000017330833272251700132_);}
	.st57{opacity:0.37;fill:url(#XMLID_00000053509952354010468930000008633890700206889094_);}
	.st58{opacity:0.37;fill:url(#XMLID_00000160908740492173868370000016462810583749237163_);}
	.st59{opacity:0.25;fill:url(#XMLID_00000118366283821622536520000003872735870971407029_);}
	.st60{opacity:0.56;fill:#F5F5F5;}
	.st61{fill:url(#XMLID_00000153685988062602564370000018052129842014807447_);}
	.st62{fill:url(#XMLID_00000100357156776404786580000017523873141828366243_);}
	.st63{fill:url(#XMLID_00000127748696514753661450000010197937288535019674_);}
</style>
<g id="_x30_1d" class="st0">
	<g id="XMLID_1832_" class="st1">
		<g id="XMLID_1837_">
			<polygon id="XMLID_1840_" class="st2" points="41.32,41.46 75.43,39.38 94.28,10.87 124.86,26.16 155.43,10.87 174.28,39.38 
				208.39,41.46 210.48,75.57 238.99,94.43 223.69,125 238.99,155.57 210.48,174.43 208.39,208.54 174.28,210.62 155.43,239.13 
				124.86,223.84 94.28,239.13 75.43,210.62 41.32,208.54 39.24,174.43 10.72,155.57 26.02,125 10.72,94.42 39.24,75.57 			"/>
			
				<linearGradient id="XMLID_00000052099437298506923740000015485790399604840353_" gradientUnits="userSpaceOnUse" x1="717.4332" y1="-1587.8367" x2="946.4783" y2="-1587.8367" gradientTransform="matrix(0.7071 0.7071 -0.7071 0.7071 -1588 657.6617)">
				<stop  offset="0.017" style="stop-color:#FDC723"/>
				<stop  offset="0.2379" style="stop-color:#F8B133"/>
				<stop  offset="0.7876" style="stop-color:#F29100"/>
				<stop  offset="0.9796" style="stop-color:#ED7402"/>
			</linearGradient>
			<polygon id="XMLID_1839_" style="fill:url(#XMLID_00000052099437298506923740000015485790399604840353_);" points="1.43,125 
				25.09,98.26 17.95,63.27 51.84,51.98 63.13,18.09 98.12,25.23 124.86,1.57 151.6,25.23 186.59,18.09 197.87,51.98 231.76,63.27 
				224.63,98.26 248.29,125 224.63,151.74 231.76,186.73 197.87,198.02 186.59,231.91 151.6,224.77 124.86,248.43 98.12,224.77 
				63.13,231.91 51.84,198.02 17.95,186.73 25.09,151.74 			"/>
			
				<radialGradient id="XMLID_00000149343301375083529060000005612555737979720068_" cx="109.3065" cy="110.2385" r="106.9803" gradientUnits="userSpaceOnUse">
				<stop  offset="0.0333" style="stop-color:#FFE089"/>
				<stop  offset="0.3449" style="stop-color:#FDC723"/>
				<stop  offset="0.5538" style="stop-color:#F8B133"/>
				<stop  offset="0.7876" style="stop-color:#F29100"/>
				<stop  offset="0.9796" style="stop-color:#ED7402"/>
			</radialGradient>
			
				<circle id="XMLID_1838_" style="fill:url(#XMLID_00000149343301375083529060000005612555737979720068_);" cx="124.86" cy="125" r="93.49"/>
		</g>
		<g id="XMLID_1833_">
			
				<radialGradient id="XMLID_00000159468567464823130130000001639765506890144687_" cx="81.5" cy="104.5399" r="7.1547" gradientUnits="userSpaceOnUse">
				<stop  offset="0" style="stop-color:#3C3C3B"/>
				<stop  offset="1" style="stop-color:#1D1D1B"/>
			</radialGradient>
			<path id="XMLID_1836_" style="fill:url(#XMLID_00000159468567464823130130000001639765506890144687_);" d="M86.02,107.18
				c0,3.95-3.2,7.15-7.15,7.15c-3.95,0-7.15-3.2-7.15-7.15c0-3.95,3.2-7.15,7.15-7.15C82.81,100.02,86.02,103.23,86.02,107.18z"/>
			
				<radialGradient id="XMLID_00000055695931817784524300000002982515714973217948_" cx="172.9225" cy="103.9749" r="7.1547" gradientUnits="userSpaceOnUse">
				<stop  offset="0" style="stop-color:#3C3C3B"/>
				<stop  offset="1" style="stop-color:#1D1D1B"/>
			</radialGradient>
			<path id="XMLID_1835_" style="fill:url(#XMLID_00000055695931817784524300000002982515714973217948_);" d="M178.01,107.18
				c0,3.95-3.2,7.15-7.15,7.15c-3.95,0-7.15-3.2-7.15-7.15c0-3.95,3.2-7.15,7.15-7.15C174.8,100.02,178.01,103.23,178.01,107.18z"/>
			
				<radialGradient id="XMLID_00000078021222198872207750000007895584798540129446_" cx="124.4783" cy="144.0539" r="20.9652" gradientUnits="userSpaceOnUse">
				<stop  offset="0.2927" style="stop-color:#3C3C3B"/>
				<stop  offset="1" style="stop-color:#1D1D1B"/>
			</radialGradient>
			<path id="XMLID_1834_" style="fill:url(#XMLID_00000078021222198872207750000007895584798540129446_);" d="M124.86,149.98
				c6.98,0,12.63-5.66,12.63-12.63h-25.26C112.22,144.32,117.88,149.98,124.86,149.98z"/>
		</g>
	</g>
</g>
<g id="_x30_2d" class="st0">
	<g id="XMLID_00000183966705645994039450000017741560049665875368_" class="st1">
		<polygon id="XMLID_00000048464191788744459540000016612729025874889367_" class="st2" points="35.4,53.57 64.57,51.78 80.69,27.4 
			106.83,40.48 132.98,27.4 149.1,51.78 178.26,53.57 180.05,82.74 204.43,98.86 191.35,125 204.43,151.14 180.05,167.26 
			178.26,196.43 149.1,198.22 132.98,222.6 106.83,209.52 80.69,222.6 64.57,198.22 35.4,196.43 33.61,167.26 9.23,151.14 
			22.31,125 9.23,98.85 33.61,82.74 		"/>
		
			<linearGradient id="XMLID_00000035489464894010650850000005530018639692872336_" gradientUnits="userSpaceOnUse" x1="721.6528" y1="-1575.0905" x2="917.5123" y2="-1575.0905" gradientTransform="matrix(0.7071 0.7071 -0.7071 0.7071 -1588 657.6617)">
			<stop  offset="0.017" style="stop-color:#FDC723"/>
			<stop  offset="0.2379" style="stop-color:#F8B133"/>
			<stop  offset="0.7876" style="stop-color:#F29100"/>
			<stop  offset="0.9796" style="stop-color:#ED7402"/>
		</linearGradient>
		
			<polygon id="XMLID_00000036967733950771933250000000057958707688773803_" style="fill:url(#XMLID_00000035489464894010650850000005530018639692872336_);" points="
			1.29,125 21.52,102.13 15.42,72.21 44.39,62.56 54.05,33.58 83.96,39.69 106.83,19.45 129.7,39.69 159.62,33.58 169.27,62.56 
			198.25,72.21 192.14,102.13 212.38,125 192.14,147.87 198.25,177.79 169.27,187.44 159.62,216.42 129.7,210.31 106.83,230.55 
			83.96,210.31 54.05,216.42 44.39,187.44 15.41,177.79 21.52,147.87 		"/>
		
			<radialGradient id="XMLID_00000059300904813974475570000013578940445449361308_" cx="91.3138" cy="110.1572" r="79.9478" gradientUnits="userSpaceOnUse">
			<stop  offset="0.017" style="stop-color:#FDC723"/>
			<stop  offset="0.2379" style="stop-color:#F8B133"/>
			<stop  offset="0.7876" style="stop-color:#F29100"/>
			<stop  offset="0.9796" style="stop-color:#ED7402"/>
		</radialGradient>
		
			<circle id="XMLID_00000018233982162622482010000005905539112011862661_" style="fill:url(#XMLID_00000059300904813974475570000013578940445449361308_);" cx="106.83" cy="125" r="79.95"/>
		<g id="XMLID_00000016058670735510390810000016036923418650464669_">
			<g id="XMLID_00000124876546564167711120000017302857849502055089_">
				
					<radialGradient id="XMLID_00000021092696216074296210000017365199743837573278_" cx="69.7559" cy="107.5043" r="6.118" gradientUnits="userSpaceOnUse">
					<stop  offset="0" style="stop-color:#3C3C3B"/>
					<stop  offset="1" style="stop-color:#1D1D1B"/>
				</radialGradient>
				
					<path id="XMLID_00000046305612786610735860000009185919664608548779_" style="fill:url(#XMLID_00000021092696216074296210000017365199743837573278_);" d="
					M73.62,109.76c0,3.38-2.74,6.12-6.12,6.12c-3.38,0-6.12-2.74-6.12-6.12c0-3.38,2.74-6.12,6.12-6.12
					C70.88,103.64,73.62,106.38,73.62,109.76z"/>
				
					<radialGradient id="XMLID_00000129181667354571065500000016772071434204332942_" cx="147.9326" cy="107.0212" r="6.1181" gradientUnits="userSpaceOnUse">
					<stop  offset="0" style="stop-color:#3C3C3B"/>
					<stop  offset="1" style="stop-color:#1D1D1B"/>
				</radialGradient>
				
					<path id="XMLID_00000009551521694093111040000014168023508365687729_" style="fill:url(#XMLID_00000129181667354571065500000016772071434204332942_);" d="
					M152.28,109.76c0,3.38-2.74,6.12-6.12,6.12c-3.38,0-6.12-2.74-6.12-6.12c0-3.38,2.74-6.12,6.12-6.12
					C149.54,103.64,152.28,106.38,152.28,109.76z"/>
			</g>
			
				<radialGradient id="XMLID_00000175309923148243368750000009555120466419668109_" cx="106.3294" cy="146.7515" r="25.4979" gradientUnits="userSpaceOnUse">
				<stop  offset="0" style="stop-color:#3C3C3B"/>
				<stop  offset="1" style="stop-color:#1D1D1B"/>
			</radialGradient>
			
				<rect id="XMLID_00000119109912141936605790000000150938386963335565_" x="90.09" y="144.21" style="fill:url(#XMLID_00000175309923148243368750000009555120466419668109_);" width="33.48" height="4.78"/>
		</g>
		
			<linearGradient id="XMLID_00000031191860112446299440000003934118033351225271_" gradientUnits="userSpaceOnUse" x1="62.8657" y1="160.4125" x2="183.9546" y2="160.4125">
			<stop  offset="0" style="stop-color:#FFFFFF"/>
			<stop  offset="1" style="stop-color:#D9D9D9"/>
		</linearGradient>
		
			<path id="XMLID_00000013873048936291055560000014656845055044419998_" style="fill:url(#XMLID_00000031191860112446299440000003934118033351225271_);" d="
			M62.87,191.78c12.61,8.32,27.72,13.17,43.97,13.17c36.84,0,67.86-24.93,77.12-58.83c-2.76-1.19-5.79-1.85-8.99-1.85
			c-0.33,0-0.66,0.04-0.99,0.05c-3.83-16.3-18.45-28.43-35.91-28.43c-20.38,0-36.9,16.52-36.9,36.9c0,3.87,0.6,7.6,1.7,11.1
			c-8.22,3.42-14,11.52-14,20.97c0,1.82,0.24,3.59,0.64,5.29H70.29C67.64,190.14,65.12,190.73,62.87,191.78z"/>
		
			<linearGradient id="XMLID_00000060011657999779226850000009471982618854435000_" gradientUnits="userSpaceOnUse" x1="61.3832" y1="175.763" x2="196.9294" y2="175.763">
			<stop  offset="0" style="stop-color:#D9D9D9"/>
			<stop  offset="1" style="stop-color:#FFFFFF"/>
		</linearGradient>
		
			<path id="XMLID_00000103239406187238857440000013486008575795101864_" style="fill:url(#XMLID_00000060011657999779226850000009471982618854435000_);" d="
			M234.18,195.15c0.39-1.67,0.62-3.41,0.62-5.2c0-12.54-10.17-22.71-22.71-22.71c-2.1,0-4.12,0.31-6.05,0.84
			c-1.89-10.64-11.16-18.72-22.34-18.72c-0.33,0-0.66,0.04-0.99,0.05c-3.83-16.3-18.45-28.43-35.91-28.43
			c-20.38,0-36.9,16.52-36.9,36.9c0,3.87,0.6,7.6,1.7,11.1c-8.22,3.42-14,11.52-14,20.97c0,1.82,0.24,3.59,0.64,5.29H79.03
			c-9.75,0-17.65,7.9-17.65,17.65l0,0c0,9.75,7.9,17.65,17.65,17.65h23.21h65.59h62.71c9.88,0,17.88-8.01,17.88-17.88l0,0
			C248.43,204.03,242.31,196.83,234.18,195.15z"/>
		<path id="XMLID_00000156560356208928154490000017611494637334099080_" class="st15" d="M234.18,195.15
			c0.39-1.67,0.62-3.41,0.62-5.2c0-12.54-10.17-22.71-22.71-22.71c-2.1,0-4.12,0.31-6.05,0.84c-1.87-10.55-11-18.58-22.05-18.72
			c-0.65,35.58-21.37,66.25-51.32,81.17h35.16h62.71c9.88,0,17.88-8.01,17.88-17.88l0,0C248.43,204.03,242.31,196.83,234.18,195.15z
			"/>
		<path id="XMLID_00000136398859379378445290000014927470247005119669_" class="st16" d="M230.72,183.24
			c1.22,4.81-3.86,8.75-8.09,5.57c-1.2-0.9-2.03-2.34-2.71-3.73c-0.94-1.92-1.71-3.97-1.74-5.87c-0.08-5.55,4.59-4.95,8.52-1.82
			C228.54,178.86,230.15,181,230.72,183.24z"/>
		<path id="XMLID_00000159467563214798028860000002645120938884189880_" class="st16" d="M74.01,198.71
			c4.74-1.46,8.93,3.42,5.97,7.81c-0.84,1.24-2.24,2.15-3.59,2.9c-1.87,1.03-3.88,1.91-5.78,2.03c-5.54,0.36-5.18-4.33-2.24-8.42
			C69.74,201.1,71.8,199.39,74.01,198.71z"/>
		<path id="XMLID_00000016770755748486115300000006886289120089645742_" class="st17" d="M135.36,126.44
			c6.84-1.54,12.36,5.9,7.79,11.81c-1.3,1.68-3.35,2.81-5.34,3.72c-2.74,1.26-5.66,2.28-8.36,2.23c-7.88-0.13-6.96-6.77-2.46-12.27
			C129.11,129.37,132.17,127.16,135.36,126.44z"/>
		<g id="XMLID_00000083086141836463001990000017422018226248263560_">
			
				<radialGradient id="XMLID_00000086664967710480252920000008424533888466619060_" cx="139.1096" cy="179.4025" r="12.7237" gradientUnits="userSpaceOnUse">
				<stop  offset="0" style="stop-color:#3C3C3B"/>
				<stop  offset="1" style="stop-color:#1D1D1B"/>
			</radialGradient>
			
				<rect id="XMLID_00000137830446784944559780000013716949168227771289_" x="131.01" y="178.13" style="fill:url(#XMLID_00000086664967710480252920000008424533888466619060_);" width="16.71" height="2.39"/>
			
				<radialGradient id="XMLID_00000101802992242527413300000016108564237569768354_" cx="186.8557" cy="179.4025" r="12.7235" gradientUnits="userSpaceOnUse">
				<stop  offset="0" style="stop-color:#3C3C3B"/>
				<stop  offset="1" style="stop-color:#1D1D1B"/>
			</radialGradient>
			
				<rect id="XMLID_00000138554215248440564760000013442111795626993569_" x="178.75" y="178.13" style="fill:url(#XMLID_00000101802992242527413300000016108564237569768354_);" width="16.71" height="2.39"/>
		</g>
		
			<radialGradient id="XMLID_00000041253175816149460340000016023385216526384784_" cx="162.9092" cy="196.7168" r="17.9278" gradientUnits="userSpaceOnUse">
			<stop  offset="0.2927" style="stop-color:#3C3C3B"/>
			<stop  offset="1" style="stop-color:#1D1D1B"/>
		</radialGradient>
		
			<path id="XMLID_00000153686218681030195360000003455189040470395044_" style="fill:url(#XMLID_00000041253175816149460340000016023385216526384784_);" d="
			M163.23,201.78c5.97,0,10.8-4.84,10.8-10.8h-21.6C152.43,196.95,157.27,201.78,163.23,201.78z"/>
	</g>
	
		<linearGradient id="XMLID_00000059301355303682514340000007154380270750149022_" gradientUnits="userSpaceOnUse" x1="61.3832" y1="175.763" x2="196.9294" y2="175.763">
		<stop  offset="0" style="stop-color:#D9D9D9"/>
		<stop  offset="1" style="stop-color:#FFFFFF"/>
	</linearGradient>
	
		<path id="XMLID_00000041985960702858767340000014677608611232185989_" style="display:inline;fill:url(#XMLID_00000059301355303682514340000007154380270750149022_);" d="
		M234.18,195.15c0.39-1.67,0.62-3.41,0.62-5.2c0-12.54-10.17-22.71-22.71-22.71c-2.1,0-4.12,0.31-6.05,0.84
		c-1.89-10.64-11.16-18.72-22.34-18.72c-0.33,0-0.66,0.04-0.99,0.05c-3.83-16.3-18.45-28.43-35.91-28.43
		c-20.38,0-36.9,16.52-36.9,36.9c0,3.87,0.6,7.6,1.7,11.1c-8.22,3.42-14,11.52-14,20.97c0,1.82,0.24,3.59,0.64,5.29H79.03
		c-9.75,0-17.65,7.9-17.65,17.65l0,0c0,9.75,7.9,17.65,17.65,17.65h23.21h65.59h62.71c9.88,0,17.88-8.01,17.88-17.88l0,0
		C248.43,204.03,242.31,196.83,234.18,195.15z"/>
	<path id="XMLID_00000152259016316830252810000005070804133843149476_" class="st22" d="M234.18,195.15
		c0.39-1.67,0.62-3.41,0.62-5.2c0-12.54-10.17-22.71-22.71-22.71c-2.1,0-4.12,0.31-6.05,0.84c-1.87-10.55-11-18.58-22.05-18.72
		c-0.65,35.58-21.37,66.25-51.32,81.17h35.16h62.71c9.88,0,17.88-8.01,17.88-17.88l0,0C248.43,204.03,242.31,196.83,234.18,195.15z"
		/>
	<path id="XMLID_00000109741751181237417800000013694726785423819692_" class="st23" d="M230.72,183.24
		c1.22,4.81-3.86,8.75-8.09,5.57c-1.2-0.9-2.03-2.34-2.71-3.73c-0.94-1.92-1.71-3.97-1.74-5.87c-0.08-5.55,4.59-4.95,8.52-1.82
		C228.54,178.86,230.15,181,230.72,183.24z"/>
	<path id="XMLID_00000024713081309524597790000000390802583484977077_" class="st23" d="M74.01,198.71
		c4.74-1.46,8.93,3.42,5.97,7.81c-0.84,1.24-2.24,2.15-3.59,2.9c-1.87,1.03-3.88,1.91-5.78,2.03c-5.54,0.36-5.18-4.33-2.24-8.42
		C69.74,201.1,71.8,199.39,74.01,198.71z"/>
	<path id="XMLID_00000087412847297454631530000006719321418769542064_" class="st24" d="M135.36,126.44
		c6.84-1.54,12.36,5.9,7.79,11.81c-1.3,1.68-3.35,2.81-5.34,3.72c-2.74,1.26-5.66,2.28-8.36,2.23c-7.88-0.13-6.96-6.77-2.46-12.27
		C129.11,129.37,132.17,127.16,135.36,126.44z"/>
	<g id="XMLID_00000076567044757090989240000008694808067641135488_" class="st1">
		
			<radialGradient id="XMLID_00000067223418292223377280000005562534202875035301_" cx="139.1096" cy="179.4025" r="12.7237" gradientUnits="userSpaceOnUse">
			<stop  offset="0" style="stop-color:#3C3C3B"/>
			<stop  offset="1" style="stop-color:#1D1D1B"/>
		</radialGradient>
		
			<rect id="XMLID_00000112594097129841778070000015324616593949410744_" x="131.01" y="178.13" style="fill:url(#XMLID_00000067223418292223377280000005562534202875035301_);" width="16.71" height="2.39"/>
		
			<radialGradient id="XMLID_00000182498951517520577680000013305531865599859863_" cx="186.8557" cy="179.4025" r="12.7235" gradientUnits="userSpaceOnUse">
			<stop  offset="0" style="stop-color:#3C3C3B"/>
			<stop  offset="1" style="stop-color:#1D1D1B"/>
		</radialGradient>
		
			<rect id="XMLID_00000004504408503654016810000003233003165012929942_" x="178.75" y="178.13" style="fill:url(#XMLID_00000182498951517520577680000013305531865599859863_);" width="16.71" height="2.39"/>
	</g>
	
		<radialGradient id="XMLID_00000101818652992955775130000010807117211046918572_" cx="162.9092" cy="196.7168" r="17.9278" gradientUnits="userSpaceOnUse">
		<stop  offset="0.2927" style="stop-color:#3C3C3B"/>
		<stop  offset="1" style="stop-color:#1D1D1B"/>
	</radialGradient>
	
		<path id="XMLID_00000023279011041579862840000000520085646412902588_" style="display:inline;fill:url(#XMLID_00000101818652992955775130000010807117211046918572_);" d="
		M163.23,201.78c5.97,0,10.8-4.84,10.8-10.8h-21.6C152.43,196.95,157.27,201.78,163.23,201.78z"/>
</g>
<g id="_x30_3" class="st0">
	
		<linearGradient id="XMLID_00000126306101282696049120000000141288665113119422_" gradientUnits="userSpaceOnUse" x1="2.1429" y1="125" x2="179.9976" y2="125">
		<stop  offset="0" style="stop-color:#D9D9D9"/>
		<stop  offset="1" style="stop-color:#FFFFFF"/>
	</linearGradient>
	
		<path id="XMLID_00000101796098576015197830000005483170755504706495_" style="display:inline;fill:url(#XMLID_00000126306101282696049120000000141288665113119422_);" d="
		M228.88,150.44c0.51-2.19,0.81-4.47,0.81-6.82c0-16.46-13.34-29.8-29.8-29.8c-2.75,0-5.41,0.4-7.94,1.1
		c-2.48-13.96-14.64-24.57-29.31-24.57c-0.44,0-0.86,0.05-1.3,0.07c-5.02-21.38-24.21-37.31-47.12-37.31
		c-26.74,0-48.42,21.68-48.42,48.42c0,5.08,0.79,9.97,2.23,14.57c-10.78,4.48-18.37,15.11-18.37,27.52c0,2.39,0.31,4.71,0.85,6.94
		H25.3c-12.79,0-23.16,10.37-23.16,23.16l0,0c0,12.79,10.37,23.16,23.16,23.16h30.46h86.06h82.28c12.96,0,23.46-10.51,23.46-23.46
		l0,0C247.57,162.09,239.55,152.65,228.88,150.44z"/>
	<path id="XMLID_00000078723094777714367010000008432148611713065648_" class="st22" d="M228.88,150.44
		c0.51-2.19,0.81-4.47,0.81-6.82c0-16.46-13.34-29.8-29.8-29.8c-2.75,0-5.41,0.4-7.94,1.1c-2.45-13.84-14.44-24.38-28.94-24.56
		c-0.86,46.68-28.04,86.92-67.34,106.51h46.13h82.28c12.96,0,23.46-10.51,23.46-23.46l0,0
		C247.57,162.09,239.55,152.65,228.88,150.44z"/>
	<path id="XMLID_00000135691642327030249680000014392875765970917277_" class="st23" d="M224.33,134.81
		c1.6,6.31-5.07,11.48-10.62,7.31c-1.57-1.18-2.67-3.07-3.56-4.9c-1.23-2.52-2.25-5.21-2.28-7.7c-0.1-7.28,6.02-6.5,11.19-2.39
		C221.48,129.06,223.58,131.87,224.33,134.81z"/>
	<path id="XMLID_00000019649320216149522890000001074212184538005940_" class="st23" d="M18.71,155.1
		c6.22-1.92,11.72,4.49,7.84,10.24c-1.1,1.63-2.93,2.82-4.71,3.8c-2.45,1.35-5.09,2.5-7.58,2.66c-7.27,0.47-6.79-5.69-2.95-11.05
		C13.11,158.24,15.8,156,18.71,155.1z"/>
	<path id="XMLID_00000000181237569837039220000010458191579493015719_" class="st24" d="M99.21,60.29
		c8.98-2.02,16.22,7.74,10.22,15.5c-1.7,2.2-4.4,3.69-7,4.88c-3.59,1.65-7.42,2.99-10.96,2.93c-10.34-0.16-9.14-8.88-3.23-16.1
		C91.01,64.12,95.02,61.23,99.21,60.29z"/>
	<g id="XMLID_00000067231698228415671660000003296512133550917814_" class="st1">
		
			<radialGradient id="XMLID_00000017475719748271737170000003897843237733836948_" cx="104.1303" cy="129.7755" r="16.6952" gradientUnits="userSpaceOnUse">
			<stop  offset="0" style="stop-color:#3C3C3B"/>
			<stop  offset="1" style="stop-color:#1D1D1B"/>
		</radialGradient>
		
			<rect id="XMLID_00000068637905819013112800000009931569377868710559_" x="93.5" y="128.11" style="fill:url(#XMLID_00000017475719748271737170000003897843237733836948_);" width="21.92" height="3.13"/>
		
			<radialGradient id="XMLID_00000152983920810132207810000016956848070686629266_" cx="166.7796" cy="129.7755" r="16.695" gradientUnits="userSpaceOnUse">
			<stop  offset="0" style="stop-color:#3C3C3B"/>
			<stop  offset="1" style="stop-color:#1D1D1B"/>
		</radialGradient>
		
			<rect id="XMLID_00000015351044370590430630000009322548303288067502_" x="156.15" y="128.11" style="fill:url(#XMLID_00000152983920810132207810000016956848070686629266_);" width="21.92" height="3.13"/>
	</g>
	
		<radialGradient id="XMLID_00000047023500064806983490000008093257131396889274_" cx="135.3586" cy="152.4943" r="23.5236" gradientUnits="userSpaceOnUse">
		<stop  offset="0.2927" style="stop-color:#3C3C3B"/>
		<stop  offset="1" style="stop-color:#1D1D1B"/>
	</radialGradient>
	
		<path id="XMLID_00000048490878121041128340000002605590788015768455_" style="display:inline;fill:url(#XMLID_00000047023500064806983490000008093257131396889274_);" d="
		M135.78,159.14c7.83,0,14.17-6.35,14.17-14.17h-28.35C121.61,152.8,127.96,159.14,135.78,159.14z"/>
</g>
<g id="_x30_4" class="st0">
	
		<radialGradient id="XMLID_00000150092303057389779030000014940228416819153044_" cx="49.698" cy="105.064" r="105.7935" gradientUnits="userSpaceOnUse">
		<stop  offset="0" style="stop-color:#ECECEC"/>
		<stop  offset="1" style="stop-color:#9C9B9B"/>
	</radialGradient>
	
		<path id="XMLID_00000110472121974004317050000008450472358915103616_" style="display:inline;fill:url(#XMLID_00000150092303057389779030000014940228416819153044_);" d="
		M32.26,98.01c0.08,0,0.16,0.01,0.24,0.01c-0.15-1.34-0.24-2.71-0.24-4.09c0-19.52,15.82-35.34,35.34-35.34
		c16.92,0,31.06,11.9,34.52,27.78c4.29-2.61,9.31-4.14,14.7-4.14c15.68,0,28.4,12.71,28.4,28.4c0,0.56-0.05,1.11-0.08,1.67
		c1.36-0.26,2.75-0.4,4.19-0.4c12.37,0,22.4,10.03,22.4,22.4s-10.03,22.4-22.4,22.4c-3.15,0-6.14-0.66-8.86-1.83
		c-5.09,4.84-11.96,7.82-19.54,7.82c-0.93,0-1.85-0.05-2.76-0.14c-5.21,6.06-12.92,9.92-21.54,9.92c-7.01,0-13.42-2.55-18.37-6.77
		c-4.84,3.83-10.94,6.14-17.6,6.14c-11.69,0-21.72-7.07-26.08-17.16c-0.77,0.06-1.54,0.12-2.32,0.12c-15.68,0-28.4-12.71-28.4-28.4
		C3.86,110.73,16.57,98.01,32.26,98.01z"/>
	<path id="XMLID_00000110451667053586450420000015460661953273389704_" class="st22" d="M100.33,80.61
		C95.07,67.7,82.4,58.6,67.6,58.6c-19.52,0-35.34,15.82-35.34,35.34c0,1.38,0.09,2.75,0.24,4.09c-0.08,0-0.16-0.01-0.24-0.01
		c-15.68,0-28.4,12.71-28.4,28.4c0,15.68,12.71,28.4,28.4,28.4c0.05,0,0.09,0,0.14,0C68.54,147.81,96.48,117.79,100.33,80.61z"/>
	<path id="XMLID_00000103982066746473497940000004967646197835814826_" class="st33" d="M16.88,107.35c4.43-1.37,8.35,3.2,5.58,7.29
		c-0.79,1.16-2.09,2.01-3.36,2.71c-1.75,0.96-3.62,1.78-5.4,1.9c-5.18,0.33-4.84-4.05-2.1-7.87
		C12.89,109.58,14.81,107.99,16.88,107.35z"/>
	<path id="XMLID_00000155835673599044485910000000402208613953168775_" class="st33" d="M53.18,66.45
		c6.39-1.44,11.55,5.52,7.28,11.04c-1.21,1.57-3.13,2.63-4.99,3.48c-2.56,1.17-5.29,2.13-7.81,2.09c-7.36-0.12-6.51-6.33-2.3-11.47
		C47.34,69.18,50.2,67.12,53.18,66.45z"/>
	
		<linearGradient id="XMLID_00000010289045990079335390000018051801385639833513_" gradientUnits="userSpaceOnUse" x1="61.6264" y1="129.2028" x2="141.4106" y2="129.2028">
		<stop  offset="0" style="stop-color:#FFFFFF"/>
		<stop  offset="1" style="stop-color:#D9D9D9"/>
	</linearGradient>
	
		<path id="XMLID_00000009571805754827024920000014981340492166277567_" style="display:inline;fill:url(#XMLID_00000010289045990079335390000018051801385639833513_);" d="
		M171.72,134.3c0-12.37-10.03-22.4-22.4-22.4c-1.43,0-2.83,0.15-4.19,0.4c0.03-0.55,0.08-1.1,0.08-1.67
		c0-10.6-5.81-19.83-14.41-24.71c-13.83,4.49-23.83,17.47-23.83,32.8c0,3.62,0.56,7.1,1.59,10.38c-7.68,3.19-13.09,10.76-13.09,19.6
		c0,1.7,0.22,3.35,0.6,4.94H78.12c-9.11,0-16.5,7.39-16.5,16.5l0,0c0,0.57,0.03,1.13,0.09,1.69c6.24-0.23,11.96-2.49,16.54-6.11
		c4.95,4.21,11.36,6.77,18.37,6.77c8.62,0,16.33-3.86,21.54-9.92c0.91,0.09,1.83,0.14,2.76,0.14c7.58,0,14.45-2.99,19.54-7.82
		c2.72,1.17,5.71,1.83,8.86,1.83C161.69,156.71,171.72,146.67,171.72,134.3z"/>
	
		<linearGradient id="XMLID_00000117635145741997559010000014784832759956687752_" gradientUnits="userSpaceOnUse" x1="71.0472" y1="140.2043" x2="197.7267" y2="140.2043">
		<stop  offset="0" style="stop-color:#D9D9D9"/>
		<stop  offset="1" style="stop-color:#FFFFFF"/>
	</linearGradient>
	
		<path id="XMLID_00000143598049484659375730000017322574681518030268_" style="display:inline;fill:url(#XMLID_00000117635145741997559010000014784832759956687752_);" d="
		M232.54,158.33c0.37-1.56,0.58-3.18,0.58-4.86c0-11.72-9.5-21.22-21.22-21.22c-1.96,0-3.85,0.29-5.65,0.78
		c-1.76-9.94-10.43-17.5-20.88-17.5c-0.31,0-0.61,0.03-0.92,0.05c-3.58-15.23-17.24-26.57-33.56-26.57
		c-19.05,0-34.49,15.44-34.49,34.49c0,3.62,0.56,7.1,1.59,10.38c-7.68,3.19-13.08,10.76-13.08,19.6c0,1.7,0.22,3.35,0.6,4.94H87.54
		c-9.11,0-16.5,7.39-16.5,16.5l0,0c0,9.11,7.39,16.5,16.5,16.5h21.7h61.3h58.61c9.23,0,16.71-7.48,16.71-16.71l0,0
		C245.86,166.63,240.14,159.9,232.54,158.33z"/>
	<path id="XMLID_00000111882784924088254120000017506200050382625200_" class="st22" d="M232.54,158.33
		c0.37-1.56,0.58-3.18,0.58-4.86c0-11.72-9.5-21.22-21.22-21.22c-1.96,0-3.85,0.29-5.65,0.78c-1.75-9.86-10.28-17.36-20.61-17.49
		c-0.61,33.25-19.97,61.91-47.96,75.86h32.86h58.61c9.23,0,16.71-7.48,16.71-16.71l0,0C245.86,166.63,240.14,159.9,232.54,158.33z"
		/>
	<path id="XMLID_00000019656276085776254550000015014463871401643955_" class="st23" d="M229.3,147.19
		c1.14,4.49-3.61,8.18-7.56,5.21c-1.12-0.84-1.9-2.19-2.53-3.49c-0.87-1.79-1.6-3.71-1.62-5.49c-0.07-5.19,4.29-4.63,7.97-1.7
		C227.27,143.1,228.77,145.09,229.3,147.19z"/>
	<path id="XMLID_00000034072340499375403210000007623207922072924085_" class="st23" d="M82.84,161.65c4.43-1.37,8.35,3.2,5.58,7.29
		c-0.79,1.16-2.09,2.01-3.36,2.71c-1.75,0.96-3.62,1.78-5.4,1.9c-5.18,0.33-4.84-4.05-2.1-7.87
		C78.86,163.88,80.78,162.28,82.84,161.65z"/>
	<path id="XMLID_00000085968733257859488830000013476477553068586402_" class="st24" d="M140.19,94.11
		c6.39-1.44,11.55,5.52,7.28,11.04c-1.21,1.57-3.13,2.62-4.99,3.48c-2.56,1.17-5.29,2.13-7.81,2.09c-7.36-0.12-6.51-6.33-2.3-11.47
		C134.34,96.84,137.2,94.78,140.19,94.11z"/>
	<g id="XMLID_00000045604967750951432230000012068441551199366831_" class="st1">
		
			<radialGradient id="XMLID_00000105429113714504480040000014172272874920616875_" cx="145.3327" cy="142.2129" r="3.1811" gradientUnits="userSpaceOnUse">
			<stop  offset="0" style="stop-color:#3C3C3B"/>
			<stop  offset="1" style="stop-color:#1D1D1B"/>
		</radialGradient>
		
			<circle id="XMLID_00000054223805242238195160000000449492730995166897_" style="fill:url(#XMLID_00000105429113714504480040000014172272874920616875_);" cx="144.16" cy="143.39" r="3.18"/>
		
			<radialGradient id="XMLID_00000179640361600374202450000013958062741947897778_" cx="185.8138" cy="141.9616" r="3.1811" gradientUnits="userSpaceOnUse">
			<stop  offset="0" style="stop-color:#3C3C3B"/>
			<stop  offset="1" style="stop-color:#1D1D1B"/>
		</radialGradient>
		
			<circle id="XMLID_00000042732406917064005030000006485095990270747522_" style="fill:url(#XMLID_00000179640361600374202450000013958062741947897778_);" cx="184.89" cy="143.39" r="3.18"/>
	</g>
	<g id="XMLID_00000165202023175944305840000003969663711368283050_" class="st1">
		<g id="XMLID_00000042704514965100588940000002564185168983582095_">
			
				<radialGradient id="XMLID_00000087381753065222879210000001999082846649486994_" cx="154.0454" cy="141.8568" r="16.5886" gradientTransform="matrix(0.845 0 0 1 19.7376 0)" gradientUnits="userSpaceOnUse">
				<stop  offset="0" style="stop-color:#3C3C3B"/>
				<stop  offset="1" style="stop-color:#1D1D1B"/>
			</radialGradient>
			
				<rect id="XMLID_00000072967319029866311210000000758788878321122226_" x="140.98" y="140.2" style="fill:url(#XMLID_00000087381753065222879210000001999082846649486994_);" width="18.41" height="3.11"/>
		</g>
		<g id="XMLID_00000182489945849246514460000001252379866457466000_">
			
				<radialGradient id="XMLID_00000074434809672515693760000017069985957022002313_" cx="175.8265" cy="166.6962" r="16.5886" gradientTransform="matrix(0.845 0 0 1 19.7376 0)" gradientUnits="userSpaceOnUse">
				<stop  offset="0" style="stop-color:#3C3C3B"/>
				<stop  offset="1" style="stop-color:#1D1D1B"/>
			</radialGradient>
			
				<rect id="XMLID_00000071537919783686131710000012347252187289643164_" x="159.38" y="165.04" style="fill:url(#XMLID_00000074434809672515693760000017069985957022002313_);" width="18.41" height="3.11"/>
		</g>
		<g id="XMLID_00000059997528224556182110000004566712175860518325_">
			
				<radialGradient id="XMLID_00000096756111099776327260000001139130716580683937_" cx="202.2493" cy="141.8568" r="16.5884" gradientTransform="matrix(0.845 0 0 1 19.7376 0)" gradientUnits="userSpaceOnUse">
				<stop  offset="0" style="stop-color:#3C3C3B"/>
				<stop  offset="1" style="stop-color:#1D1D1B"/>
			</radialGradient>
			
				<rect id="XMLID_00000094620559446168816260000011603086158193040021_" x="181.71" y="140.2" style="fill:url(#XMLID_00000096756111099776327260000001139130716580683937_);" width="18.41" height="3.11"/>
		</g>
	</g>
	<g id="XMLID_00000142156912901795918890000004403152425080848776_" class="st1">
		<g id="XMLID_00000016073231720059796850000017164530971014573202_">
			
				<radialGradient id="XMLID_00000172409777564686783910000016710254124706934451_" cx="43.5108" cy="108.287" r="11.8914" gradientUnits="userSpaceOnUse">
				<stop  offset="0" style="stop-color:#3C3C3B"/>
				<stop  offset="1" style="stop-color:#1D1D1B"/>
			</radialGradient>
			
				<rect id="XMLID_00000021841485615629344140000014820568690352899468_" x="35.94" y="107.1" style="fill:url(#XMLID_00000172409777564686783910000016710254124706934451_);" width="15.61" height="2.23"/>
			
				<radialGradient id="XMLID_00000033365373226184840650000002698137034430055321_" cx="88.1335" cy="108.287" r="11.8912" gradientUnits="userSpaceOnUse">
				<stop  offset="0" style="stop-color:#3C3C3B"/>
				<stop  offset="1" style="stop-color:#1D1D1B"/>
			</radialGradient>
			
				<rect id="XMLID_00000085956375115932380690000014672242193419213230_" x="80.56" y="107.1" style="fill:url(#XMLID_00000033365373226184840650000002698137034430055321_);" width="15.61" height="2.23"/>
		</g>
		
			<radialGradient id="XMLID_00000139288353572609654310000012493544421684902578_" cx="65.7536" cy="124.4687" r="16.7549" gradientUnits="userSpaceOnUse">
			<stop  offset="0.2927" style="stop-color:#3C3C3B"/>
			<stop  offset="1" style="stop-color:#1D1D1B"/>
		</radialGradient>
		
			<path id="XMLID_00000173849630336547136180000010866341988704665779_" style="fill:url(#XMLID_00000139288353572609654310000012493544421684902578_);" d="
			M66.06,129.2c5.58,0,10.1-4.52,10.1-10.1H55.96C55.96,124.68,60.48,129.2,66.06,129.2z"/>
	</g>
</g>
<g id="_x30_1n">
	<g id="XMLID_00000136378250989681979320000016085540384121753989_">
		
			<radialGradient id="XMLID_00000104705747449724386060000011554692849406364327_" cx="33.9207" cy="332.4147" r="166.5212" gradientTransform="matrix(0.9542 -0.2991 0.2991 0.9542 -71.2977 -212.9306)" gradientUnits="userSpaceOnUse">
			<stop  offset="0.1141" style="stop-color:#FFE9CA"/>
			<stop  offset="0.6835" style="stop-color:#FCCA7D"/>
			<stop  offset="0.9525" style="stop-color:#D2B469"/>
		</radialGradient>
		
			<circle id="XMLID_00000054256405053041322920000001502753946396480187_" style="fill:url(#XMLID_00000104705747449724386060000011554692849406364327_);" cx="124.86" cy="125" r="120.92"/>
		
			<radialGradient id="XMLID_00000006691367237312559770000002599234218014276250_" cx="114.9672" cy="334.3572" r="24.8334" gradientTransform="matrix(0.9542 -0.2991 0.2991 0.9542 -71.2977 -212.9306)" gradientUnits="userSpaceOnUse">
			<stop  offset="0" style="stop-color:#FFE9CA"/>
			<stop  offset="0.5476" style="stop-color:#FCCA7D"/>
			<stop  offset="0.9525" style="stop-color:#D2B469"/>
		</radialGradient>
		
			<circle id="XMLID_00000157278091231129178760000008876894257596996263_" style="opacity:0.37;fill:url(#XMLID_00000006691367237312559770000002599234218014276250_);" cx="138.41" cy="71.73" r="24.83"/>
		
			<radialGradient id="XMLID_00000117653076330618482740000017705381753011160510_" cx="195.1019" cy="450.7867" r="24.8328" gradientTransform="matrix(0.8941 -0.2803 0.2842 0.9067 -108.1055 -193.2423)" gradientUnits="userSpaceOnUse">
			<stop  offset="0" style="stop-color:#FFE9CA"/>
			<stop  offset="0.5476" style="stop-color:#FCCA7D"/>
			<stop  offset="0.9525" style="stop-color:#D2B469"/>
		</radialGradient>
		
			<path id="XMLID_00000153698740589602631810000015926255581124716458_" style="opacity:0.37;fill:url(#XMLID_00000117653076330618482740000017705381753011160510_);" d="
			M216.65,153.84c3.9,12.44-2.88,25.63-15.14,29.48c-12.26,3.84-25.36-3.12-29.26-15.56c-3.9-12.44,2.88-25.63,15.14-29.48
			C199.65,134.44,212.75,141.4,216.65,153.84z"/>
		
			<radialGradient id="XMLID_00000181078218316263952580000014327224980768220081_" cx="112.5552" cy="493.9518" r="5.8597" gradientTransform="matrix(0.8941 -0.2803 0.2842 0.9067 -108.1055 -193.2423)" gradientUnits="userSpaceOnUse">
			<stop  offset="0" style="stop-color:#FFE9CA"/>
			<stop  offset="0.5476" style="stop-color:#FCCA7D"/>
			<stop  offset="0.9525" style="stop-color:#D2B469"/>
		</radialGradient>
		
			<path id="XMLID_00000020372597582229445350000017070764377078116530_" style="opacity:0.37;fill:url(#XMLID_00000181078218316263952580000014327224980768220081_);" d="
			M138.15,221.43c0.92,2.93-0.68,6.05-3.57,6.96c-2.89,0.91-5.98-0.74-6.9-3.67c-0.92-2.93,0.68-6.05,3.57-6.96
			C134.14,216.85,137.23,218.5,138.15,221.43z"/>
		
			<radialGradient id="XMLID_00000095307832500904763080000003995738762309322936_" cx="-0.6803" cy="369.5018" r="12.4167" gradientTransform="matrix(0.9542 -0.2991 0.2991 0.9542 -71.2977 -212.9306)" gradientUnits="userSpaceOnUse">
			<stop  offset="0" style="stop-color:#FFE9CA"/>
			<stop  offset="0.5476" style="stop-color:#FCCA7D"/>
			<stop  offset="0.9525" style="stop-color:#D2B469"/>
		</radialGradient>
		
			<path id="XMLID_00000096055609716278026810000004425259305999848105_" style="opacity:0.37;fill:url(#XMLID_00000095307832500904763080000003995738762309322936_);" d="
			M50.42,136.14c2.05,6.54-1.59,13.51-8.13,15.56c-6.54,2.05-13.51-1.59-15.56-8.13s1.59-13.51,8.13-15.56
			C41.4,125.95,48.37,129.59,50.42,136.14z"/>
		
			<radialGradient id="XMLID_00000117661065180094358760000002243960650284319417_" cx="100.3313" cy="388.1487" r="12.4167" gradientTransform="matrix(0.9542 -0.2991 0.2991 0.9542 -71.2977 -212.9306)" gradientUnits="userSpaceOnUse">
			<stop  offset="0" style="stop-color:#FFE9CA"/>
			<stop  offset="0.5476" style="stop-color:#FCCA7D"/>
			<stop  offset="0.9525" style="stop-color:#D2B469"/>
		</radialGradient>
		
			<path id="XMLID_00000047746384335534453290000017205090585189022368_" style="opacity:0.37;fill:url(#XMLID_00000117661065180094358760000002243960650284319417_);" d="
			M152.38,123.72c2.05,6.54-1.59,13.51-8.13,15.56c-6.54,2.05-13.51-1.59-15.56-8.13c-2.05-6.54,1.59-13.51,8.13-15.56
			C143.36,113.53,150.33,117.17,152.38,123.72z"/>
		
			<radialGradient id="XMLID_00000154395505665341429790000004220154870406953399_" cx="71.3039" cy="304.2725" r="12.4167" gradientTransform="matrix(0.9542 -0.2991 0.2991 0.9542 -71.2977 -212.9306)" gradientUnits="userSpaceOnUse">
			<stop  offset="0" style="stop-color:#FFE9CA"/>
			<stop  offset="0.5476" style="stop-color:#FCCA7D"/>
			<stop  offset="0.9525" style="stop-color:#D2B469"/>
		</radialGradient>
		
			<circle id="XMLID_00000173129545477085423800000008574279691575497627_" style="opacity:0.37;fill:url(#XMLID_00000154395505665341429790000004220154870406953399_);" cx="87.75" cy="56.08" r="12.42"/>
		
			<radialGradient id="XMLID_00000075138471460118633870000012001532369042757517_" cx="67.111" cy="378.8569" r="9.2926" gradientTransform="matrix(0.9542 -0.2991 0.2991 0.9542 -71.2977 -212.9306)" gradientUnits="userSpaceOnUse">
			<stop  offset="0" style="stop-color:#FFE9CA"/>
			<stop  offset="0.5476" style="stop-color:#FCCA7D"/>
			<stop  offset="0.9525" style="stop-color:#D2B469"/>
		</radialGradient>
		
			<path id="XMLID_00000052804470046501669580000004344675365413931924_" style="opacity:0.37;fill:url(#XMLID_00000075138471460118633870000012001532369042757517_);" d="
			M114.92,125.72c1.54,4.9-1.19,10.11-6.09,11.65c-4.9,1.54-10.11-1.19-11.65-6.09c-1.54-4.9,1.19-10.11,6.09-11.65
			C108.17,118.1,113.39,120.82,114.92,125.72z"/>
		
			<radialGradient id="XMLID_00000070087129200444652680000012254872972280317357_" cx="8.6136" cy="436.1182" r="9.2926" gradientTransform="matrix(0.9542 -0.2991 0.2991 0.9542 -71.2977 -212.9306)" gradientUnits="userSpaceOnUse">
			<stop  offset="0" style="stop-color:#FFE9CA"/>
			<stop  offset="0.5476" style="stop-color:#FCCA7D"/>
			<stop  offset="0.9525" style="stop-color:#D2B469"/>
		</radialGradient>
		
			<path id="XMLID_00000127765410513985300370000014715357813708046506_" style="opacity:0.37;fill:url(#XMLID_00000070087129200444652680000012254872972280317357_);" d="
			M76.23,197.86c1.54,4.9-1.19,10.11-6.09,11.65c-4.9,1.54-10.11-1.19-11.65-6.09c-1.54-4.9,1.19-10.11,6.09-11.65
			C69.48,190.23,74.7,192.96,76.23,197.86z"/>
		
			<radialGradient id="XMLID_00000127739678831185443250000010673406675425758367_" cx="8.612" cy="348.5235" r="4.6464" gradientTransform="matrix(0.9542 -0.2991 0.2991 0.9542 -71.2977 -212.9306)" gradientUnits="userSpaceOnUse">
			<stop  offset="0" style="stop-color:#FFE9CA"/>
			<stop  offset="0.5476" style="stop-color:#FCCA7D"/>
			<stop  offset="0.9525" style="stop-color:#D2B469"/>
		</radialGradient>
		
			<path id="XMLID_00000119114970270539474030000002329022241637238686_" style="opacity:0.37;fill:url(#XMLID_00000127739678831185443250000010673406675425758367_);" d="
			M45.6,115.66c0.77,2.45-0.6,5.06-3.04,5.82c-2.45,0.77-5.06-0.6-5.82-3.04c-0.77-2.45,0.6-5.06,3.04-5.82
			C42.22,111.85,44.83,113.22,45.6,115.66z"/>
		
			<radialGradient id="XMLID_00000088125681535260190580000006971081392855621023_" cx="51.9669" cy="324.4385" r="4.6463" gradientTransform="matrix(0.9542 -0.2991 0.2991 0.9542 -71.2977 -212.9306)" gradientUnits="userSpaceOnUse">
			<stop  offset="0" style="stop-color:#FFE9CA"/>
			<stop  offset="0.5476" style="stop-color:#FCCA7D"/>
			<stop  offset="0.9525" style="stop-color:#D2B469"/>
		</radialGradient>
		
			<path id="XMLID_00000084495711610654935990000015711496946634575003_" style="opacity:0.37;fill:url(#XMLID_00000088125681535260190580000006971081392855621023_);" d="
			M79.76,79.72c0.77,2.45-0.6,5.06-3.04,5.82c-2.45,0.77-5.06-0.6-5.82-3.04c-0.77-2.45,0.6-5.06,3.04-5.82
			C76.39,75.9,78.99,77.27,79.76,79.72z"/>
		
			<radialGradient id="XMLID_00000028286352790277378220000004336269471653456313_" cx="181.3294" cy="399.5426" r="4.6463" gradientTransform="matrix(0.9542 -0.2991 0.2991 0.9542 -71.2977 -212.9306)" gradientUnits="userSpaceOnUse">
			<stop  offset="0" style="stop-color:#FFE9CA"/>
			<stop  offset="0.5476" style="stop-color:#FCCA7D"/>
			<stop  offset="0.9525" style="stop-color:#D2B469"/>
		</radialGradient>
		
			<path id="XMLID_00000075842346522161358160000010736341028166435770_" style="opacity:0.37;fill:url(#XMLID_00000028286352790277378220000004336269471653456313_);" d="
			M225.66,112.69c0.77,2.45-0.6,5.06-3.04,5.82c-2.45,0.77-5.06-0.6-5.82-3.04c-0.77-2.45,0.6-5.06,3.04-5.82
			C222.29,108.88,224.9,110.24,225.66,112.69z"/>
		
			<radialGradient id="XMLID_00000162312075870608208020000012991696109816591259_" cx="158.4835" cy="317.4161" r="8.538" gradientTransform="matrix(0.9542 -0.2991 0.2991 0.9542 -71.2977 -212.9306)" gradientUnits="userSpaceOnUse">
			<stop  offset="0" style="stop-color:#FFE9CA"/>
			<stop  offset="0.5476" style="stop-color:#FCCA7D"/>
			<stop  offset="0.9525" style="stop-color:#D2B469"/>
		</radialGradient>
		
			<path id="XMLID_00000122721280157809756150000018349230291396492713_" style="opacity:0.37;fill:url(#XMLID_00000162312075870608208020000012991696109816591259_);" d="
			M183.01,39.99c1.41,4.5-1.09,9.29-5.59,10.7c-4.5,1.41-9.29-1.09-10.7-5.59c-1.41-4.5,1.09-9.29,5.59-10.7
			C176.81,32.99,181.6,35.49,183.01,39.99z"/>
		
			<radialGradient id="XMLID_00000173882967938110263980000015158915630216454792_" cx="86.101" cy="464.1982" r="8.538" gradientTransform="matrix(0.9542 -0.2991 0.2991 0.9542 -71.2977 -212.9306)" gradientUnits="userSpaceOnUse">
			<stop  offset="0" style="stop-color:#FFE9CA"/>
			<stop  offset="0.5476" style="stop-color:#FCCA7D"/>
			<stop  offset="0.9525" style="stop-color:#D2B469"/>
		</radialGradient>
		
			<path id="XMLID_00000141416331535500692970000003655970091942662317_" style="opacity:0.37;fill:url(#XMLID_00000173882967938110263980000015158915630216454792_);" d="
			M157.85,201.7c1.41,4.5-1.09,9.29-5.59,10.7c-4.5,1.41-9.29-1.09-10.7-5.59c-1.41-4.5,1.09-9.29,5.59-10.7
			C151.65,194.7,156.44,197.2,157.85,201.7z"/>
		
			<radialGradient id="XMLID_00000137134567458068863370000012931253888365696664_" cx="113.2071" cy="289.0416" r="4.5513" gradientTransform="matrix(0.9542 -0.2991 0.2991 0.9542 -71.2977 -212.9306)" gradientUnits="userSpaceOnUse">
			<stop  offset="0" style="stop-color:#FFE9CA"/>
			<stop  offset="0.5476" style="stop-color:#FCCA7D"/>
			<stop  offset="0.9525" style="stop-color:#D2B469"/>
		</radialGradient>
		
			<path id="XMLID_00000082355905714205408310000003416724007158141833_" style="opacity:0.37;fill:url(#XMLID_00000137134567458068863370000012931253888365696664_);" d="
			M127.52,27.65c0.75,2.4-0.58,4.95-2.98,5.7c-2.4,0.75-4.95-0.58-5.7-2.98c-0.75-2.4,0.58-4.95,2.98-5.7
			C124.21,23.92,126.77,25.25,127.52,27.65z"/>
		
			<radialGradient id="XMLID_00000029748584724892550640000009914668454024122290_" cx="0.3204" cy="395.7396" r="166.3094" gradientTransform="matrix(0.9542 -0.2991 0.2991 0.9542 -71.2977 -212.9306)" gradientUnits="userSpaceOnUse">
			<stop  offset="0.1141" style="stop-color:#FFE9CA"/>
			<stop  offset="0.6835" style="stop-color:#FCCA7D"/>
			<stop  offset="0.9525" style="stop-color:#D2B469"/>
		</radialGradient>
		
			<path id="XMLID_00000021836367452444622230000013923854585642711195_" style="opacity:0.25;fill:url(#XMLID_00000029748584724892550640000009914668454024122290_);" d="
			M212.24,50.15c1.68,3.85,3.17,7.81,4.45,11.88c4.58,14.6,6.18,29.66,4.89,44.46c3.1,0.14,5.93,2.18,6.91,5.31
			c1.25,4-0.98,8.28-4.98,9.53c-1.43,0.45-2.9,0.44-4.25,0.08c-1.55,6.93-3.77,13.75-6.63,20.38c3.08,2.99,5.48,6.77,6.85,11.16
			c4.38,13.97-3.28,28.86-17.08,33.18c-7.16,2.24-14.58,1.21-20.68-2.26c-6.7,5.73-14.07,10.68-21.99,14.75
			c0.38,0.68,0.7,1.41,0.94,2.19c1.9,6.05-1.48,12.51-7.53,14.41c-6.05,1.9-12.51-1.48-14.41-7.53c-0.07-0.23-0.13-0.46-0.19-0.69
			c-20.22,5.79-41.21,5.93-61.12,0.6c-1.5,2.17-3.7,3.87-6.4,4.72c-6.45,2.02-13.33-1.58-15.35-8.03c-0.54-1.73-0.68-3.49-0.46-5.18
			c-0.51-0.26-1.02-0.51-1.53-0.78c-13.2-6.9-24.7-16.09-34.11-27.07c10.45,23.9,28.57,43.39,52.01,55.64
			c27.22,14.23,58.36,17,87.67,7.82c29.31-9.19,53.29-29.24,67.52-56.46c14.23-27.22,17.01-58.36,7.82-87.67
			C229.86,75.5,222.23,61.82,212.24,50.15z M135.46,231.21c-4.45,1.39-9.21-1.12-10.61-5.61c-1.41-4.49,1.07-9.27,5.51-10.66
			c4.45-1.39,9.21,1.12,10.61,5.61C142.38,225.03,139.91,229.82,135.46,231.21z"/>
		<path id="XMLID_00000152969276819550782750000017807292401311321783_" class="st60" d="M34.03,55.18
			C42.56,48.2,52.9,54.2,49.14,65.4c-1.07,3.18-3.36,6.17-5.66,8.81c-3.16,3.65-6.66,7.11-10.29,8.99
			c-10.58,5.49-12-4.06-8.17-14.66C26.83,63.58,30.05,58.44,34.03,55.18z"/>
	</g>
	<g id="XMLID_00000101820698716268536330000010850708381912869558_">
		
			<radialGradient id="XMLID_00000067196682780317179800000012842602063183169183_" cx="60.5755" cy="94.6658" r="10.6076" gradientUnits="userSpaceOnUse">
			<stop  offset="0" style="stop-color:#3C3C3B"/>
			<stop  offset="1" style="stop-color:#1D1D1B"/>
		</radialGradient>
		
			<path id="XMLID_00000110445345182093554970000012722642734267136437_" style="fill:url(#XMLID_00000067196682780317179800000012842602063183169183_);" d="
			M67.27,98.58c0,5.86-4.75,10.61-10.61,10.61c-5.86,0-10.61-4.75-10.61-10.61c0-5.86,4.75-10.61,10.61-10.61
			C62.52,87.97,67.27,92.72,67.27,98.58z"/>
		
			<radialGradient id="XMLID_00000040571232943140998850000013190947631707904659_" cx="196.1198" cy="93.8281" r="10.6076" gradientUnits="userSpaceOnUse">
			<stop  offset="0" style="stop-color:#3C3C3B"/>
			<stop  offset="1" style="stop-color:#1D1D1B"/>
		</radialGradient>
		
			<path id="XMLID_00000146470140606823791890000013220066314553068195_" style="fill:url(#XMLID_00000040571232943140998850000013190947631707904659_);" d="
			M203.66,98.58c0,5.86-4.75,10.61-10.61,10.61c-5.86,0-10.61-4.75-10.61-10.61c0-5.86,4.75-10.61,10.61-10.61
			C198.91,87.97,203.66,92.72,203.66,98.58z"/>
		
			<radialGradient id="XMLID_00000067238229952560465200000007077527611902570664_" cx="124.2957" cy="153.2498" r="31.0833" gradientUnits="userSpaceOnUse">
			<stop  offset="0.2927" style="stop-color:#3C3C3B"/>
			<stop  offset="1" style="stop-color:#1D1D1B"/>
		</radialGradient>
		
			<path id="XMLID_00000083052838973361494570000003317588657235853455_" style="fill:url(#XMLID_00000067238229952560465200000007077527611902570664_);" d="
			M124.86,162.03c10.34,0,18.73-8.39,18.73-18.73h-37.46C106.13,153.65,114.51,162.03,124.86,162.03z"/>
	</g>
</g>
</svg>
