<?xml version="1.0" encoding="utf-8"?>
<!-- Generator: Adobe Illustrator 25.4.1, SVG Export Plug-In . SVG Version: 6.00 Build 0)  -->
<svg version="1.1" xmlns="http://www.w3.org/2000/svg" xmlns:xlink="http://www.w3.org/1999/xlink" x="0px" y="0px"
	 viewBox="0 0 250 250" style="enable-background:new 0 0 250 250;" xml:space="preserve">
<style type="text/css">
	.st0{display:none;}
	.st1{display:inline;}
	.st2{fill:#F29100;}
	.st3{fill:url(#XMLID_00000012439941717611073200000017882411581160254643_);}
	.st4{fill:url(#XMLID_00000020383743423303156640000015771421948155996596_);}
	.st5{fill:url(#XMLID_00000032614547320106677210000013195674571085642132_);}
	.st6{fill:url(#XMLID_00000012456306221053349290000014940856812118906025_);}
	.st7{fill:url(#XMLID_00000047038436210774325290000007040756405279875519_);}
	.st8{fill:url(#XMLID_00000163773032229037392670000012913055543518867637_);}
	.st9{fill:url(#XMLID_00000032611167957539053940000017353380779226901657_);}
	.st10{fill:url(#XMLID_00000016054147557401095440000002100025199518736257_);}
	.st11{fill:url(#XMLID_00000013913870091409943390000013489154220530548389_);}
	.st12{fill:url(#XMLID_00000026155383188642387570000015768691308577896082_);}
	.st13{fill:url(#XMLID_00000155847909249505163700000007570506215815686536_);}
	.st14{fill:url(#XMLID_00000101825595239059239940000006721049341136205990_);}
	.st15{fill:#ECECEC;}
	.st16{fill:#F5F5F5;}
	.st17{fill:#FFFFFF;}
	.st18{fill:url(#XMLID_00000091729346441500228610000009509378464890922659_);}
	.st19{fill:url(#XMLID_00000081613734469121568600000011855960378803870096_);}
	.st20{fill:url(#XMLID_00000114773453171190675570000017180258988043081145_);}
	.st21{display:inline;fill:url(#XMLID_00000036937343511612869680000009378182888761510047_);}
	.st22{display:inline;fill:#ECECEC;}
	.st23{display:inline;fill:#F5F5F5;}
	.st24{display:inline;fill:#FFFFFF;}
	.st25{fill:url(#XMLID_00000124163463546746198860000000511754965954369970_);}
	.st26{fill:url(#XMLID_00000175289160475775699150000002364699729890578059_);}
	.st27{display:inline;fill:url(#XMLID_00000005253687800386834360000002313807098929542291_);}
	.st28{display:inline;fill:url(#XMLID_00000048474909014561601100000011730777200733867907_);}
	.st29{fill:url(#XMLID_00000063617646098823227200000006429637440411448761_);}
	.st30{fill:url(#XMLID_00000071528583389867274470000003827981066570318227_);}
	.st31{display:inline;fill:url(#XMLID_00000039099235097809390500000009046755426791943088_);}
	.st32{fill:url(#XMLID_00000092428871621390491660000015957565875016065967_);}
	.st33{fill:#D9D9D9;}
	.st34{fill:url(#XMLID_00000063598403319248187810000007776797609365125047_);}
	.st35{fill:url(#XMLID_00000075872993090327407410000014565306571939658643_);}
	.st36{fill:url(#XMLID_00000078730172323087457070000015363012985792674972_);}
	.st37{fill:url(#XMLID_00000108288476223497735550000014611648157322967482_);}
	.st38{fill:url(#XMLID_00000176010821219076834650000012428482135591479972_);}
	.st39{fill:url(#XMLID_00000175314585228132038680000009041497462068286353_);}
	.st40{fill:url(#XMLID_00000137845463851933135810000004738799318306317218_);}
	.st41{fill:url(#XMLID_00000160185100675624983210000002937853640957904807_);}
	.st42{fill:url(#XMLID_00000145771522427330154810000013154540690893780915_);}
	.st43{fill:url(#XMLID_00000142143353925487427250000007094966328526803873_);}
</style>
<g id="_x30_1d" class="st0">
	<g id="XMLID_1832_" class="st1">
		<g id="XMLID_1837_">
			<polygon id="XMLID_1840_" class="st2" points="41.32,41.46 75.43,39.38 94.28,10.87 124.86,26.16 155.43,10.87 174.28,39.38 
				208.39,41.46 210.48,75.57 238.99,94.43 223.69,125 238.99,155.57 210.48,174.43 208.39,208.54 174.28,210.62 155.43,239.13 
				124.86,223.84 94.28,239.13 75.43,210.62 41.32,208.54 39.24,174.43 10.72,155.57 26.02,125 10.72,94.42 39.24,75.57 			"/>
			
				<linearGradient id="XMLID_00000151515307311343145600000003618996070302167941_" gradientUnits="userSpaceOnUse" x1="717.4332" y1="-1587.8367" x2="946.4783" y2="-1587.8367" gradientTransform="matrix(0.7071 0.7071 -0.7071 0.7071 -1588 657.6617)">
				<stop  offset="0.017" style="stop-color:#FDC723"/>
				<stop  offset="0.2379" style="stop-color:#F8B133"/>
				<stop  offset="0.7876" style="stop-color:#F29100"/>
				<stop  offset="0.9796" style="stop-color:#ED7402"/>
			</linearGradient>
			<polygon id="XMLID_1839_" style="fill:url(#XMLID_00000151515307311343145600000003618996070302167941_);" points="1.43,125 
				25.09,98.26 17.95,63.27 51.84,51.98 63.13,18.09 98.12,25.23 124.86,1.57 151.6,25.23 186.59,18.09 197.87,51.98 231.76,63.27 
				224.63,98.26 248.29,125 224.63,151.74 231.76,186.73 197.87,198.02 186.59,231.91 151.6,224.77 124.86,248.43 98.12,224.77 
				63.13,231.91 51.84,198.02 17.95,186.73 25.09,151.74 			"/>
			
				<radialGradient id="XMLID_00000070093562801159582600000002059370797066353830_" cx="109.3065" cy="110.2385" r="106.9803" gradientUnits="userSpaceOnUse">
				<stop  offset="0.0333" style="stop-color:#FFE089"/>
				<stop  offset="0.3449" style="stop-color:#FDC723"/>
				<stop  offset="0.5538" style="stop-color:#F8B133"/>
				<stop  offset="0.7876" style="stop-color:#F29100"/>
				<stop  offset="0.9796" style="stop-color:#ED7402"/>
			</radialGradient>
			
				<circle id="XMLID_1838_" style="fill:url(#XMLID_00000070093562801159582600000002059370797066353830_);" cx="124.86" cy="125" r="93.49"/>
		</g>
		<g id="XMLID_1833_">
			
				<radialGradient id="XMLID_00000072997785797826709710000009723249388879749815_" cx="81.5" cy="104.5399" r="7.1547" gradientUnits="userSpaceOnUse">
				<stop  offset="0" style="stop-color:#3C3C3B"/>
				<stop  offset="1" style="stop-color:#1D1D1B"/>
			</radialGradient>
			<path id="XMLID_1836_" style="fill:url(#XMLID_00000072997785797826709710000009723249388879749815_);" d="M86.02,107.18
				c0,3.95-3.2,7.15-7.15,7.15c-3.95,0-7.15-3.2-7.15-7.15c0-3.95,3.2-7.15,7.15-7.15C82.81,100.02,86.02,103.23,86.02,107.18z"/>
			
				<radialGradient id="XMLID_00000062887401814618647910000005620175792582498944_" cx="172.9225" cy="103.9749" r="7.1547" gradientUnits="userSpaceOnUse">
				<stop  offset="0" style="stop-color:#3C3C3B"/>
				<stop  offset="1" style="stop-color:#1D1D1B"/>
			</radialGradient>
			<path id="XMLID_1835_" style="fill:url(#XMLID_00000062887401814618647910000005620175792582498944_);" d="M178.01,107.18
				c0,3.95-3.2,7.15-7.15,7.15c-3.95,0-7.15-3.2-7.15-7.15c0-3.95,3.2-7.15,7.15-7.15C174.8,100.02,178.01,103.23,178.01,107.18z"/>
			
				<radialGradient id="XMLID_00000142157856224763918540000004960434700365185668_" cx="124.4783" cy="144.0539" r="20.9652" gradientUnits="userSpaceOnUse">
				<stop  offset="0.2927" style="stop-color:#3C3C3B"/>
				<stop  offset="1" style="stop-color:#1D1D1B"/>
			</radialGradient>
			<path id="XMLID_1834_" style="fill:url(#XMLID_00000142157856224763918540000004960434700365185668_);" d="M124.86,149.98
				c6.98,0,12.63-5.66,12.63-12.63h-25.26C112.22,144.32,117.88,149.98,124.86,149.98z"/>
		</g>
	</g>
</g>
<g id="_x30_2d" class="st0">
	<g id="XMLID_00000183966705645994039450000017741560049665875368_" class="st1">
		<polygon id="XMLID_00000048464191788744459540000016612729025874889367_" class="st2" points="35.4,53.57 64.57,51.78 80.69,27.4 
			106.83,40.48 132.98,27.4 149.1,51.78 178.26,53.57 180.05,82.74 204.43,98.86 191.35,125 204.43,151.14 180.05,167.26 
			178.26,196.43 149.1,198.22 132.98,222.6 106.83,209.52 80.69,222.6 64.57,198.22 35.4,196.43 33.61,167.26 9.23,151.14 
			22.31,125 9.23,98.85 33.61,82.74 		"/>
		
			<linearGradient id="XMLID_00000127725592600566620520000006313415736620170666_" gradientUnits="userSpaceOnUse" x1="721.6528" y1="-1575.0905" x2="917.5123" y2="-1575.0905" gradientTransform="matrix(0.7071 0.7071 -0.7071 0.7071 -1588 657.6617)">
			<stop  offset="0.017" style="stop-color:#FDC723"/>
			<stop  offset="0.2379" style="stop-color:#F8B133"/>
			<stop  offset="0.7876" style="stop-color:#F29100"/>
			<stop  offset="0.9796" style="stop-color:#ED7402"/>
		</linearGradient>
		
			<polygon id="XMLID_00000036967733950771933250000000057958707688773803_" style="fill:url(#XMLID_00000127725592600566620520000006313415736620170666_);" points="
			1.29,125 21.52,102.13 15.42,72.21 44.39,62.56 54.05,33.58 83.96,39.69 106.83,19.45 129.7,39.69 159.62,33.58 169.27,62.56 
			198.25,72.21 192.14,102.13 212.38,125 192.14,147.87 198.25,177.79 169.27,187.44 159.62,216.42 129.7,210.31 106.83,230.55 
			83.96,210.31 54.05,216.42 44.39,187.44 15.41,177.79 21.52,147.87 		"/>
		
			<radialGradient id="XMLID_00000124862383057838142900000010222253957701641098_" cx="91.3138" cy="110.1572" r="79.9478" gradientUnits="userSpaceOnUse">
			<stop  offset="0.017" style="stop-color:#FDC723"/>
			<stop  offset="0.2379" style="stop-color:#F8B133"/>
			<stop  offset="0.7876" style="stop-color:#F29100"/>
			<stop  offset="0.9796" style="stop-color:#ED7402"/>
		</radialGradient>
		
			<circle id="XMLID_00000018233982162622482010000005905539112011862661_" style="fill:url(#XMLID_00000124862383057838142900000010222253957701641098_);" cx="106.83" cy="125" r="79.95"/>
		<g id="XMLID_00000016058670735510390810000016036923418650464669_">
			<g id="XMLID_00000124876546564167711120000017302857849502055089_">
				
					<radialGradient id="XMLID_00000018216451479964218630000013343724387605598098_" cx="69.7559" cy="107.5043" r="6.118" gradientUnits="userSpaceOnUse">
					<stop  offset="0" style="stop-color:#3C3C3B"/>
					<stop  offset="1" style="stop-color:#1D1D1B"/>
				</radialGradient>
				
					<path id="XMLID_00000046305612786610735860000009185919664608548779_" style="fill:url(#XMLID_00000018216451479964218630000013343724387605598098_);" d="
					M73.62,109.76c0,3.38-2.74,6.12-6.12,6.12c-3.38,0-6.12-2.74-6.12-6.12c0-3.38,2.74-6.12,6.12-6.12
					C70.88,103.64,73.62,106.38,73.62,109.76z"/>
				
					<radialGradient id="XMLID_00000128479475761457636650000011569523840627013515_" cx="147.9326" cy="107.0212" r="6.1181" gradientUnits="userSpaceOnUse">
					<stop  offset="0" style="stop-color:#3C3C3B"/>
					<stop  offset="1" style="stop-color:#1D1D1B"/>
				</radialGradient>
				
					<path id="XMLID_00000009551521694093111040000014168023508365687729_" style="fill:url(#XMLID_00000128479475761457636650000011569523840627013515_);" d="
					M152.28,109.76c0,3.38-2.74,6.12-6.12,6.12c-3.38,0-6.12-2.74-6.12-6.12c0-3.38,2.74-6.12,6.12-6.12
					C149.54,103.64,152.28,106.38,152.28,109.76z"/>
			</g>
			
				<radialGradient id="XMLID_00000104682360368618556680000008008045233783149235_" cx="106.3294" cy="146.7515" r="25.4979" gradientUnits="userSpaceOnUse">
				<stop  offset="0" style="stop-color:#3C3C3B"/>
				<stop  offset="1" style="stop-color:#1D1D1B"/>
			</radialGradient>
			
				<rect id="XMLID_00000119109912141936605790000000150938386963335565_" x="90.09" y="144.21" style="fill:url(#XMLID_00000104682360368618556680000008008045233783149235_);" width="33.48" height="4.78"/>
		</g>
		
			<linearGradient id="XMLID_00000007404962220510948770000015642730480282459015_" gradientUnits="userSpaceOnUse" x1="62.8657" y1="160.4125" x2="183.9546" y2="160.4125">
			<stop  offset="0" style="stop-color:#FFFFFF"/>
			<stop  offset="1" style="stop-color:#D9D9D9"/>
		</linearGradient>
		
			<path id="XMLID_00000013873048936291055560000014656845055044419998_" style="fill:url(#XMLID_00000007404962220510948770000015642730480282459015_);" d="
			M62.87,191.78c12.61,8.32,27.72,13.17,43.97,13.17c36.84,0,67.86-24.93,77.12-58.83c-2.76-1.19-5.79-1.85-8.99-1.85
			c-0.33,0-0.66,0.04-0.99,0.05c-3.83-16.3-18.45-28.43-35.91-28.43c-20.38,0-36.9,16.52-36.9,36.9c0,3.87,0.6,7.6,1.7,11.1
			c-8.22,3.42-14,11.52-14,20.97c0,1.82,0.24,3.59,0.64,5.29H70.29C67.64,190.14,65.12,190.73,62.87,191.78z"/>
		
			<linearGradient id="XMLID_00000004538473159858857030000002960853445100577675_" gradientUnits="userSpaceOnUse" x1="61.3832" y1="175.763" x2="196.9294" y2="175.763">
			<stop  offset="0" style="stop-color:#D9D9D9"/>
			<stop  offset="1" style="stop-color:#FFFFFF"/>
		</linearGradient>
		
			<path id="XMLID_00000103239406187238857440000013486008575795101864_" style="fill:url(#XMLID_00000004538473159858857030000002960853445100577675_);" d="
			M234.18,195.15c0.39-1.67,0.62-3.41,0.62-5.2c0-12.54-10.17-22.71-22.71-22.71c-2.1,0-4.12,0.31-6.05,0.84
			c-1.89-10.64-11.16-18.72-22.34-18.72c-0.33,0-0.66,0.04-0.99,0.05c-3.83-16.3-18.45-28.43-35.91-28.43
			c-20.38,0-36.9,16.52-36.9,36.9c0,3.87,0.6,7.6,1.7,11.1c-8.22,3.42-14,11.52-14,20.97c0,1.82,0.24,3.59,0.64,5.29H79.03
			c-9.75,0-17.65,7.9-17.65,17.65l0,0c0,9.75,7.9,17.65,17.65,17.65h23.21h65.59h62.71c9.88,0,17.88-8.01,17.88-17.88l0,0
			C248.43,204.03,242.31,196.83,234.18,195.15z"/>
		<path id="XMLID_00000156560356208928154490000017611494637334099080_" class="st15" d="M234.18,195.15
			c0.39-1.67,0.62-3.41,0.62-5.2c0-12.54-10.17-22.71-22.71-22.71c-2.1,0-4.12,0.31-6.05,0.84c-1.87-10.55-11-18.58-22.05-18.72
			c-0.65,35.58-21.37,66.25-51.32,81.17h35.16h62.71c9.88,0,17.88-8.01,17.88-17.88l0,0C248.43,204.03,242.31,196.83,234.18,195.15z
			"/>
		<path id="XMLID_00000136398859379378445290000014927470247005119669_" class="st16" d="M230.72,183.24
			c1.22,4.81-3.86,8.75-8.09,5.57c-1.2-0.9-2.03-2.34-2.71-3.73c-0.94-1.92-1.71-3.97-1.74-5.87c-0.08-5.55,4.59-4.95,8.52-1.82
			C228.54,178.86,230.15,181,230.72,183.24z"/>
		<path id="XMLID_00000159467563214798028860000002645120938884189880_" class="st16" d="M74.01,198.71
			c4.74-1.46,8.93,3.42,5.97,7.81c-0.84,1.24-2.24,2.15-3.59,2.9c-1.87,1.03-3.88,1.91-5.78,2.03c-5.54,0.36-5.18-4.33-2.24-8.42
			C69.74,201.1,71.8,199.39,74.01,198.71z"/>
		<path id="XMLID_00000016770755748486115300000006886289120089645742_" class="st17" d="M135.36,126.44
			c6.84-1.54,12.36,5.9,7.79,11.81c-1.3,1.68-3.35,2.81-5.34,3.72c-2.74,1.26-5.66,2.28-8.36,2.23c-7.88-0.13-6.96-6.77-2.46-12.27
			C129.11,129.37,132.17,127.16,135.36,126.44z"/>
		<g id="XMLID_00000083086141836463001990000017422018226248263560_">
			
				<radialGradient id="XMLID_00000157284550260267972620000001870764888997656250_" cx="139.1096" cy="179.4025" r="12.7237" gradientUnits="userSpaceOnUse">
				<stop  offset="0" style="stop-color:#3C3C3B"/>
				<stop  offset="1" style="stop-color:#1D1D1B"/>
			</radialGradient>
			
				<rect id="XMLID_00000137830446784944559780000013716949168227771289_" x="131.01" y="178.13" style="fill:url(#XMLID_00000157284550260267972620000001870764888997656250_);" width="16.71" height="2.39"/>
			
				<radialGradient id="XMLID_00000007414498071543001640000001556301590397650099_" cx="186.8557" cy="179.4025" r="12.7235" gradientUnits="userSpaceOnUse">
				<stop  offset="0" style="stop-color:#3C3C3B"/>
				<stop  offset="1" style="stop-color:#1D1D1B"/>
			</radialGradient>
			
				<rect id="XMLID_00000138554215248440564760000013442111795626993569_" x="178.75" y="178.13" style="fill:url(#XMLID_00000007414498071543001640000001556301590397650099_);" width="16.71" height="2.39"/>
		</g>
		
			<radialGradient id="XMLID_00000143613215285136626070000012471488586048736697_" cx="162.9092" cy="196.7168" r="17.9278" gradientUnits="userSpaceOnUse">
			<stop  offset="0.2927" style="stop-color:#3C3C3B"/>
			<stop  offset="1" style="stop-color:#1D1D1B"/>
		</radialGradient>
		
			<path id="XMLID_00000153686218681030195360000003455189040470395044_" style="fill:url(#XMLID_00000143613215285136626070000012471488586048736697_);" d="
			M163.23,201.78c5.97,0,10.8-4.84,10.8-10.8h-21.6C152.43,196.95,157.27,201.78,163.23,201.78z"/>
	</g>
	
		<linearGradient id="XMLID_00000005964328081558581860000004746826482266810544_" gradientUnits="userSpaceOnUse" x1="61.3832" y1="175.763" x2="196.9294" y2="175.763">
		<stop  offset="0" style="stop-color:#D9D9D9"/>
		<stop  offset="1" style="stop-color:#FFFFFF"/>
	</linearGradient>
	
		<path id="XMLID_00000041985960702858767340000014677608611232185989_" style="display:inline;fill:url(#XMLID_00000005964328081558581860000004746826482266810544_);" d="
		M234.18,195.15c0.39-1.67,0.62-3.41,0.62-5.2c0-12.54-10.17-22.71-22.71-22.71c-2.1,0-4.12,0.31-6.05,0.84
		c-1.89-10.64-11.16-18.72-22.34-18.72c-0.33,0-0.66,0.04-0.99,0.05c-3.83-16.3-18.45-28.43-35.91-28.43
		c-20.38,0-36.9,16.52-36.9,36.9c0,3.87,0.6,7.6,1.7,11.1c-8.22,3.42-14,11.52-14,20.97c0,1.82,0.24,3.59,0.64,5.29H79.03
		c-9.75,0-17.65,7.9-17.65,17.65l0,0c0,9.75,7.9,17.65,17.65,17.65h23.21h65.59h62.71c9.88,0,17.88-8.01,17.88-17.88l0,0
		C248.43,204.03,242.31,196.83,234.18,195.15z"/>
	<path id="XMLID_00000152259016316830252810000005070804133843149476_" class="st22" d="M234.18,195.15
		c0.39-1.67,0.62-3.41,0.62-5.2c0-12.54-10.17-22.71-22.71-22.71c-2.1,0-4.12,0.31-6.05,0.84c-1.87-10.55-11-18.58-22.05-18.72
		c-0.65,35.58-21.37,66.25-51.32,81.17h35.16h62.71c9.88,0,17.88-8.01,17.88-17.88l0,0C248.43,204.03,242.31,196.83,234.18,195.15z"
		/>
	<path id="XMLID_00000109741751181237417800000013694726785423819692_" class="st23" d="M230.72,183.24
		c1.22,4.81-3.86,8.75-8.09,5.57c-1.2-0.9-2.03-2.34-2.71-3.73c-0.94-1.92-1.71-3.97-1.74-5.87c-0.08-5.55,4.59-4.95,8.52-1.82
		C228.54,178.86,230.15,181,230.72,183.24z"/>
	<path id="XMLID_00000024713081309524597790000000390802583484977077_" class="st23" d="M74.01,198.71
		c4.74-1.46,8.93,3.42,5.97,7.81c-0.84,1.24-2.24,2.15-3.59,2.9c-1.87,1.03-3.88,1.91-5.78,2.03c-5.54,0.36-5.18-4.33-2.24-8.42
		C69.74,201.1,71.8,199.39,74.01,198.71z"/>
	<path id="XMLID_00000087412847297454631530000006719321418769542064_" class="st24" d="M135.36,126.44
		c6.84-1.54,12.36,5.9,7.79,11.81c-1.3,1.68-3.35,2.81-5.34,3.72c-2.74,1.26-5.66,2.28-8.36,2.23c-7.88-0.13-6.96-6.77-2.46-12.27
		C129.11,129.37,132.17,127.16,135.36,126.44z"/>
	<g id="XMLID_00000076567044757090989240000008694808067641135488_" class="st1">
		
			<radialGradient id="XMLID_00000122714917042375963340000001293565351084688567_" cx="139.1096" cy="179.4025" r="12.7237" gradientUnits="userSpaceOnUse">
			<stop  offset="0" style="stop-color:#3C3C3B"/>
			<stop  offset="1" style="stop-color:#1D1D1B"/>
		</radialGradient>
		
			<rect id="XMLID_00000112594097129841778070000015324616593949410744_" x="131.01" y="178.13" style="fill:url(#XMLID_00000122714917042375963340000001293565351084688567_);" width="16.71" height="2.39"/>
		
			<radialGradient id="XMLID_00000133522665325158325400000011143209920980207006_" cx="186.8557" cy="179.4025" r="12.7235" gradientUnits="userSpaceOnUse">
			<stop  offset="0" style="stop-color:#3C3C3B"/>
			<stop  offset="1" style="stop-color:#1D1D1B"/>
		</radialGradient>
		
			<rect id="XMLID_00000004504408503654016810000003233003165012929942_" x="178.75" y="178.13" style="fill:url(#XMLID_00000133522665325158325400000011143209920980207006_);" width="16.71" height="2.39"/>
	</g>
	
		<radialGradient id="XMLID_00000124148120047654661910000006866234418328437636_" cx="162.9092" cy="196.7168" r="17.9278" gradientUnits="userSpaceOnUse">
		<stop  offset="0.2927" style="stop-color:#3C3C3B"/>
		<stop  offset="1" style="stop-color:#1D1D1B"/>
	</radialGradient>
	
		<path id="XMLID_00000023279011041579862840000000520085646412902588_" style="display:inline;fill:url(#XMLID_00000124148120047654661910000006866234418328437636_);" d="
		M163.23,201.78c5.97,0,10.8-4.84,10.8-10.8h-21.6C152.43,196.95,157.27,201.78,163.23,201.78z"/>
</g>
<g id="_x30_3" class="st0">
	
		<linearGradient id="XMLID_00000148640053808851588980000012904211493012836243_" gradientUnits="userSpaceOnUse" x1="2.1429" y1="125" x2="179.9976" y2="125">
		<stop  offset="0" style="stop-color:#D9D9D9"/>
		<stop  offset="1" style="stop-color:#FFFFFF"/>
	</linearGradient>
	
		<path id="XMLID_00000101796098576015197830000005483170755504706495_" style="display:inline;fill:url(#XMLID_00000148640053808851588980000012904211493012836243_);" d="
		M228.88,150.44c0.51-2.19,0.81-4.47,0.81-6.82c0-16.46-13.34-29.8-29.8-29.8c-2.75,0-5.41,0.4-7.94,1.1
		c-2.48-13.96-14.64-24.57-29.31-24.57c-0.44,0-0.86,0.05-1.3,0.07c-5.02-21.38-24.21-37.31-47.12-37.31
		c-26.74,0-48.42,21.68-48.42,48.42c0,5.08,0.79,9.97,2.23,14.57c-10.78,4.48-18.37,15.11-18.37,27.52c0,2.39,0.31,4.71,0.85,6.94
		H25.3c-12.79,0-23.16,10.37-23.16,23.16l0,0c0,12.79,10.37,23.16,23.16,23.16h30.46h86.06h82.28c12.96,0,23.46-10.51,23.46-23.46
		l0,0C247.57,162.09,239.55,152.65,228.88,150.44z"/>
	<path id="XMLID_00000078723094777714367010000008432148611713065648_" class="st22" d="M228.88,150.44
		c0.51-2.19,0.81-4.47,0.81-6.82c0-16.46-13.34-29.8-29.8-29.8c-2.75,0-5.41,0.4-7.94,1.1c-2.45-13.84-14.44-24.38-28.94-24.56
		c-0.86,46.68-28.04,86.92-67.34,106.51h46.13h82.28c12.96,0,23.46-10.51,23.46-23.46l0,0
		C247.57,162.09,239.55,152.65,228.88,150.44z"/>
	<path id="XMLID_00000135691642327030249680000014392875765970917277_" class="st23" d="M224.33,134.81
		c1.6,6.31-5.07,11.48-10.62,7.31c-1.57-1.18-2.67-3.07-3.56-4.9c-1.23-2.52-2.25-5.21-2.28-7.7c-0.1-7.28,6.02-6.5,11.19-2.39
		C221.48,129.06,223.58,131.87,224.33,134.81z"/>
	<path id="XMLID_00000019649320216149522890000001074212184538005940_" class="st23" d="M18.71,155.1
		c6.22-1.92,11.72,4.49,7.84,10.24c-1.1,1.63-2.93,2.82-4.71,3.8c-2.45,1.35-5.09,2.5-7.58,2.66c-7.27,0.47-6.79-5.69-2.95-11.05
		C13.11,158.24,15.8,156,18.71,155.1z"/>
	<path id="XMLID_00000000181237569837039220000010458191579493015719_" class="st24" d="M99.21,60.29
		c8.98-2.02,16.22,7.74,10.22,15.5c-1.7,2.2-4.4,3.69-7,4.88c-3.59,1.65-7.42,2.99-10.96,2.93c-10.34-0.16-9.14-8.88-3.23-16.1
		C91.01,64.12,95.02,61.23,99.21,60.29z"/>
	<g id="XMLID_00000067231698228415671660000003296512133550917814_" class="st1">
		
			<radialGradient id="XMLID_00000177471984975375588420000006059154043958625184_" cx="104.1303" cy="129.7755" r="16.6952" gradientUnits="userSpaceOnUse">
			<stop  offset="0" style="stop-color:#3C3C3B"/>
			<stop  offset="1" style="stop-color:#1D1D1B"/>
		</radialGradient>
		
			<rect id="XMLID_00000068637905819013112800000009931569377868710559_" x="93.5" y="128.11" style="fill:url(#XMLID_00000177471984975375588420000006059154043958625184_);" width="21.92" height="3.13"/>
		
			<radialGradient id="XMLID_00000143615663455047675240000012686272221262572207_" cx="166.7796" cy="129.7755" r="16.695" gradientUnits="userSpaceOnUse">
			<stop  offset="0" style="stop-color:#3C3C3B"/>
			<stop  offset="1" style="stop-color:#1D1D1B"/>
		</radialGradient>
		
			<rect id="XMLID_00000015351044370590430630000009322548303288067502_" x="156.15" y="128.11" style="fill:url(#XMLID_00000143615663455047675240000012686272221262572207_);" width="21.92" height="3.13"/>
	</g>
	
		<radialGradient id="XMLID_00000105423566902874806740000001335759539338599080_" cx="135.3586" cy="152.4943" r="23.5236" gradientUnits="userSpaceOnUse">
		<stop  offset="0.2927" style="stop-color:#3C3C3B"/>
		<stop  offset="1" style="stop-color:#1D1D1B"/>
	</radialGradient>
	
		<path id="XMLID_00000048490878121041128340000002605590788015768455_" style="display:inline;fill:url(#XMLID_00000105423566902874806740000001335759539338599080_);" d="
		M135.78,159.14c7.83,0,14.17-6.35,14.17-14.17h-28.35C121.61,152.8,127.96,159.14,135.78,159.14z"/>
</g>
<g id="Layer_4">
	
		<radialGradient id="XMLID_00000029015239750671337660000009743346667914424473_" cx="49.698" cy="105.064" r="105.7935" gradientUnits="userSpaceOnUse">
		<stop  offset="0" style="stop-color:#ECECEC"/>
		<stop  offset="1" style="stop-color:#9C9B9B"/>
	</radialGradient>
	
		<path id="XMLID_00000110472121974004317050000008450472358915103616_" style="fill:url(#XMLID_00000029015239750671337660000009743346667914424473_);" d="
		M32.26,98.01c0.08,0,0.16,0.01,0.24,0.01c-0.15-1.34-0.24-2.71-0.24-4.09c0-19.52,15.82-35.34,35.34-35.34
		c16.92,0,31.06,11.9,34.52,27.78c4.29-2.61,9.31-4.14,14.7-4.14c15.68,0,28.4,12.71,28.4,28.4c0,0.56-0.05,1.11-0.08,1.67
		c1.36-0.26,2.75-0.4,4.19-0.4c12.37,0,22.4,10.03,22.4,22.4s-10.03,22.4-22.4,22.4c-3.15,0-6.14-0.66-8.86-1.83
		c-5.09,4.84-11.96,7.82-19.54,7.82c-0.93,0-1.85-0.05-2.76-0.14c-5.21,6.06-12.92,9.92-21.54,9.92c-7.01,0-13.42-2.55-18.37-6.77
		c-4.84,3.83-10.94,6.14-17.6,6.14c-11.69,0-21.72-7.07-26.08-17.16c-0.77,0.06-1.54,0.12-2.32,0.12c-15.68,0-28.4-12.71-28.4-28.4
		C3.86,110.73,16.57,98.01,32.26,98.01z"/>
	<path id="XMLID_00000110451667053586450420000015460661953273389704_" class="st15" d="M100.33,80.61
		C95.07,67.7,82.4,58.6,67.6,58.6c-19.52,0-35.34,15.82-35.34,35.34c0,1.38,0.09,2.75,0.24,4.09c-0.08,0-0.16-0.01-0.24-0.01
		c-15.68,0-28.4,12.71-28.4,28.4c0,15.68,12.71,28.4,28.4,28.4c0.05,0,0.09,0,0.14,0C68.54,147.81,96.48,117.79,100.33,80.61z"/>
	<path id="XMLID_00000103982066746473497940000004967646197835814826_" class="st33" d="M16.88,107.35c4.43-1.37,8.35,3.2,5.58,7.29
		c-0.79,1.16-2.09,2.01-3.36,2.71c-1.75,0.96-3.62,1.78-5.4,1.9c-5.18,0.33-4.84-4.05-2.1-7.87
		C12.89,109.58,14.81,107.99,16.88,107.35z"/>
	<path id="XMLID_00000155835673599044485910000000402208613953168775_" class="st33" d="M53.18,66.45
		c6.39-1.44,11.55,5.52,7.28,11.04c-1.21,1.57-3.13,2.63-4.99,3.48c-2.56,1.17-5.29,2.13-7.81,2.09c-7.36-0.12-6.51-6.33-2.3-11.47
		C47.34,69.18,50.2,67.12,53.18,66.45z"/>
	
		<linearGradient id="XMLID_00000031196355678508766920000017167278932280005536_" gradientUnits="userSpaceOnUse" x1="61.6264" y1="129.2028" x2="141.4106" y2="129.2028">
		<stop  offset="0" style="stop-color:#FFFFFF"/>
		<stop  offset="1" style="stop-color:#D9D9D9"/>
	</linearGradient>
	
		<path id="XMLID_00000009571805754827024920000014981340492166277567_" style="fill:url(#XMLID_00000031196355678508766920000017167278932280005536_);" d="
		M171.72,134.3c0-12.37-10.03-22.4-22.4-22.4c-1.43,0-2.83,0.15-4.19,0.4c0.03-0.55,0.08-1.1,0.08-1.67
		c0-10.6-5.81-19.83-14.41-24.71c-13.83,4.49-23.83,17.47-23.83,32.8c0,3.62,0.56,7.1,1.59,10.38c-7.68,3.19-13.09,10.76-13.09,19.6
		c0,1.7,0.22,3.35,0.6,4.94H78.12c-9.11,0-16.5,7.39-16.5,16.5l0,0c0,0.57,0.03,1.13,0.09,1.69c6.24-0.23,11.96-2.49,16.54-6.11
		c4.95,4.21,11.36,6.77,18.37,6.77c8.62,0,16.33-3.86,21.54-9.92c0.91,0.09,1.83,0.14,2.76,0.14c7.58,0,14.45-2.99,19.54-7.82
		c2.72,1.17,5.71,1.83,8.86,1.83C161.69,156.71,171.72,146.67,171.72,134.3z"/>
	
		<linearGradient id="XMLID_00000152239941878474647470000017018821062706693309_" gradientUnits="userSpaceOnUse" x1="71.0472" y1="140.2043" x2="197.7267" y2="140.2043">
		<stop  offset="0" style="stop-color:#D9D9D9"/>
		<stop  offset="1" style="stop-color:#FFFFFF"/>
	</linearGradient>
	
		<path id="XMLID_00000143598049484659375730000017322574681518030268_" style="fill:url(#XMLID_00000152239941878474647470000017018821062706693309_);" d="
		M232.54,158.33c0.37-1.56,0.58-3.18,0.58-4.86c0-11.72-9.5-21.22-21.22-21.22c-1.96,0-3.85,0.29-5.65,0.78
		c-1.76-9.94-10.43-17.5-20.88-17.5c-0.31,0-0.61,0.03-0.92,0.05c-3.58-15.23-17.24-26.57-33.56-26.57
		c-19.05,0-34.49,15.44-34.49,34.49c0,3.62,0.56,7.1,1.59,10.38c-7.68,3.19-13.08,10.76-13.08,19.6c0,1.7,0.22,3.35,0.6,4.94H87.54
		c-9.11,0-16.5,7.39-16.5,16.5l0,0c0,9.11,7.39,16.5,16.5,16.5h21.7h61.3h58.61c9.23,0,16.71-7.48,16.71-16.71l0,0
		C245.86,166.63,240.14,159.9,232.54,158.33z"/>
	<path id="XMLID_00000111882784924088254120000017506200050382625200_" class="st15" d="M232.54,158.33
		c0.37-1.56,0.58-3.18,0.58-4.86c0-11.72-9.5-21.22-21.22-21.22c-1.96,0-3.85,0.29-5.65,0.78c-1.75-9.86-10.28-17.36-20.61-17.49
		c-0.61,33.25-19.97,61.91-47.96,75.86h32.86h58.61c9.23,0,16.71-7.48,16.71-16.71l0,0C245.86,166.63,240.14,159.9,232.54,158.33z"
		/>
	<path id="XMLID_00000019656276085776254550000015014463871401643955_" class="st16" d="M229.3,147.19
		c1.14,4.49-3.61,8.18-7.56,5.21c-1.12-0.84-1.9-2.19-2.53-3.49c-0.87-1.79-1.6-3.71-1.62-5.49c-0.07-5.19,4.29-4.63,7.97-1.7
		C227.27,143.1,228.77,145.09,229.3,147.19z"/>
	<path id="XMLID_00000034072340499375403210000007623207922072924085_" class="st16" d="M82.84,161.65c4.43-1.37,8.35,3.2,5.58,7.29
		c-0.79,1.16-2.09,2.01-3.36,2.71c-1.75,0.96-3.62,1.78-5.4,1.9c-5.18,0.33-4.84-4.05-2.1-7.87
		C78.86,163.88,80.78,162.28,82.84,161.65z"/>
	<path id="XMLID_00000085968733257859488830000013476477553068586402_" class="st17" d="M140.19,94.11
		c6.39-1.44,11.55,5.52,7.28,11.04c-1.21,1.57-3.13,2.62-4.99,3.48c-2.56,1.17-5.29,2.13-7.81,2.09c-7.36-0.12-6.51-6.33-2.3-11.47
		C134.34,96.84,137.2,94.78,140.19,94.11z"/>
	<g id="XMLID_00000045604967750951432230000012068441551199366831_">
		
			<radialGradient id="XMLID_00000102540344798942997630000017037832978151827893_" cx="145.3327" cy="142.2129" r="3.1811" gradientUnits="userSpaceOnUse">
			<stop  offset="0" style="stop-color:#3C3C3B"/>
			<stop  offset="1" style="stop-color:#1D1D1B"/>
		</radialGradient>
		
			<circle id="XMLID_00000054223805242238195160000000449492730995166897_" style="fill:url(#XMLID_00000102540344798942997630000017037832978151827893_);" cx="144.16" cy="143.39" r="3.18"/>
		
			<radialGradient id="XMLID_00000111160895008680543680000011988524966285045949_" cx="185.8138" cy="141.9616" r="3.1811" gradientUnits="userSpaceOnUse">
			<stop  offset="0" style="stop-color:#3C3C3B"/>
			<stop  offset="1" style="stop-color:#1D1D1B"/>
		</radialGradient>
		
			<circle id="XMLID_00000042732406917064005030000006485095990270747522_" style="fill:url(#XMLID_00000111160895008680543680000011988524966285045949_);" cx="184.89" cy="143.39" r="3.18"/>
	</g>
	<g id="XMLID_00000165202023175944305840000003969663711368283050_">
		<g id="XMLID_00000042704514965100588940000002564185168983582095_">
			
				<radialGradient id="XMLID_00000181046273484678697520000016513207807556607407_" cx="154.0454" cy="141.8568" r="16.5886" gradientTransform="matrix(0.845 0 0 1 19.7376 0)" gradientUnits="userSpaceOnUse">
				<stop  offset="0" style="stop-color:#3C3C3B"/>
				<stop  offset="1" style="stop-color:#1D1D1B"/>
			</radialGradient>
			
				<rect id="XMLID_00000072967319029866311210000000758788878321122226_" x="140.98" y="140.2" style="fill:url(#XMLID_00000181046273484678697520000016513207807556607407_);" width="18.41" height="3.11"/>
		</g>
		<g id="XMLID_00000182489945849246514460000001252379866457466000_">
			
				<radialGradient id="XMLID_00000065781579506124068630000007846349981457699734_" cx="175.8265" cy="166.6962" r="16.5886" gradientTransform="matrix(0.845 0 0 1 19.7376 0)" gradientUnits="userSpaceOnUse">
				<stop  offset="0" style="stop-color:#3C3C3B"/>
				<stop  offset="1" style="stop-color:#1D1D1B"/>
			</radialGradient>
			
				<rect id="XMLID_00000071537919783686131710000012347252187289643164_" x="159.38" y="165.04" style="fill:url(#XMLID_00000065781579506124068630000007846349981457699734_);" width="18.41" height="3.11"/>
		</g>
		<g id="XMLID_00000059997528224556182110000004566712175860518325_">
			
				<radialGradient id="XMLID_00000033370920046823908730000007152303899033872515_" cx="202.2493" cy="141.8568" r="16.5884" gradientTransform="matrix(0.845 0 0 1 19.7376 0)" gradientUnits="userSpaceOnUse">
				<stop  offset="0" style="stop-color:#3C3C3B"/>
				<stop  offset="1" style="stop-color:#1D1D1B"/>
			</radialGradient>
			
				<rect id="XMLID_00000094620559446168816260000011603086158193040021_" x="181.71" y="140.2" style="fill:url(#XMLID_00000033370920046823908730000007152303899033872515_);" width="18.41" height="3.11"/>
		</g>
	</g>
	<g id="XMLID_00000142156912901795918890000004403152425080848776_">
		<g id="XMLID_00000016073231720059796850000017164530971014573202_">
			
				<radialGradient id="XMLID_00000024699942749452488070000005659075144163100550_" cx="43.5108" cy="108.287" r="11.8914" gradientUnits="userSpaceOnUse">
				<stop  offset="0" style="stop-color:#3C3C3B"/>
				<stop  offset="1" style="stop-color:#1D1D1B"/>
			</radialGradient>
			
				<rect id="XMLID_00000021841485615629344140000014820568690352899468_" x="35.94" y="107.1" style="fill:url(#XMLID_00000024699942749452488070000005659075144163100550_);" width="15.61" height="2.23"/>
			
				<radialGradient id="XMLID_00000058578955080234294480000005384522963563230094_" cx="88.1335" cy="108.287" r="11.8912" gradientUnits="userSpaceOnUse">
				<stop  offset="0" style="stop-color:#3C3C3B"/>
				<stop  offset="1" style="stop-color:#1D1D1B"/>
			</radialGradient>
			
				<rect id="XMLID_00000085956375115932380690000014672242193419213230_" x="80.56" y="107.1" style="fill:url(#XMLID_00000058578955080234294480000005384522963563230094_);" width="15.61" height="2.23"/>
		</g>
		
			<radialGradient id="XMLID_00000155119588533032671860000008730580391201911199_" cx="65.7536" cy="124.4687" r="16.7549" gradientUnits="userSpaceOnUse">
			<stop  offset="0.2927" style="stop-color:#3C3C3B"/>
			<stop  offset="1" style="stop-color:#1D1D1B"/>
		</radialGradient>
		
			<path id="XMLID_00000173849630336547136180000010866341988704665779_" style="fill:url(#XMLID_00000155119588533032671860000008730580391201911199_);" d="
			M66.06,129.2c5.58,0,10.1-4.52,10.1-10.1H55.96C55.96,124.68,60.48,129.2,66.06,129.2z"/>
	</g>
</g>
</svg>
